<?xml version="1.0" encoding="UTF-8" standalone="no"?>
<!DOCTYPE svg PUBLIC "-//W3C//DTD SVG 1.1//EN"
 "http://www.w3.org/Graphics/SVG/1.1/DTD/svg11.dtd">
<!-- Generated by graphviz version 2.43.0 (0)
 -->
<!-- Title: %3 Pages: 1 -->
<svg width="891pt" height="439pt"
 viewBox="0.00 0.00 891.00 439.00" xmlns="http://www.w3.org/2000/svg" xmlns:xlink="http://www.w3.org/1999/xlink">
<g id="graph0" class="graph" transform="scale(1 1) rotate(0) translate(4 435)">
<title>%3</title>
<polygon fill="white" stroke="transparent" points="-4,4 -4,-435 887,-435 887,4 -4,4"/>
<g id="clust1" class="cluster">
<title>cluster_left</title>
<polygon fill="none" stroke="black" points="0,-8 0,-264 273,-264 273,-8 0,-8"/>
</g>
<g id="clust2" class="cluster">
<title>cluster_relations</title>
<polygon fill="none" stroke="black" points="8,-16 8,-256 265,-256 265,-16 8,-16"/>
</g>
<g id="clust3" class="cluster">
<title>cluster_rel_0</title>
<path fill="none" stroke="#a6a6a6" stroke-width="1.2" stroke-dasharray="5,2" d="M28,-24C28,-24 245,-24 245,-24 251,-24 257,-30 257,-36 257,-36 257,-236 257,-236 257,-242 251,-248 245,-248 245,-248 28,-248 28,-248 22,-248 16,-242 16,-236 16,-236 16,-36 16,-36 16,-30 22,-24 28,-24"/>
<text text-anchor="middle" x="136.5" y="-236" font-family="Arial" font-size="10.00">PID 1723791 • Relation RTI 1 (public.test1 (26144))</text>
</g>
<g id="clust4" class="cluster">
<title>cluster_parent_rel_0</title>
<path fill="none" stroke="#8c8c8c" stroke-width="1.2" stroke-dasharray="5,2" d="M404,-123C404,-123 863,-123 863,-123 869,-123 875,-129 875,-135 875,-135 875,-335 875,-335 875,-341 869,-347 863,-347 863,-347 404,-347 404,-347 398,-347 392,-341 392,-335 392,-335 392,-135 392,-135 392,-129 398,-123 404,-123"/>
<text text-anchor="middle" x="633.5" y="-335" font-family="Arial" font-size="10.00">PID 1723791 • Derived relation 187651256160888</text>
</g>
<!-- plan_1723791_0 -->
<g id="node1" class="node">
<title>plan_1723791_0</title>
<path fill="lightgreen" stroke="black" stroke-width="3" d="M189,-221C189,-221 84,-221 84,-221 78,-221 72,-215 72,-209 72,-209 72,-155 72,-155 72,-149 78,-143 84,-143 84,-143 189,-143 189,-143 195,-143 201,-149 201,-155 201,-155 201,-209 201,-209 201,-215 195,-221 189,-221"/>
<text text-anchor="middle" x="136.5" y="-209.8" font-family="Arial" font-size="9.00">T_SeqScan</text>
<text text-anchor="middle" x="136.5" y="-199.8" font-family="Arial" font-size="9.00">[CHOSEN]</text>
<text text-anchor="middle" x="136.5" y="-189.8" font-family="Arial" font-size="9.00">Type: T_Path</text>
<text text-anchor="middle" x="136.5" y="-179.8" font-family="Arial" font-size="9.00">Startup: 0.000</text>
<text text-anchor="middle" x="136.5" y="-169.8" font-family="Arial" font-size="9.00">Total: 15.000</text>
<text text-anchor="middle" x="136.5" y="-159.8" font-family="Arial" font-size="9.00">Rows: 1000</text>
<text text-anchor="middle" x="136.5" y="-149.8" font-family="Arial" font-size="9.00">Parent: public.test1 (26144)</text>
</g>
<!-- plan_1723791_1 -->
<g id="node2" class="node">
<title>plan_1723791_1</title>
<path fill="lightblue" stroke="black" d="M189,-100C189,-100 84,-100 84,-100 78,-100 72,-94 72,-88 72,-88 72,-44 72,-44 72,-38 78,-32 84,-32 84,-32 189,-32 189,-32 195,-32 201,-38 201,-44 201,-44 201,-88 201,-88 201,-94 195,-100 189,-100"/>
<text text-anchor="middle" x="136.5" y="-88.8" font-family="Arial" font-size="9.00">T_IndexOnlyScan</text>
<text text-anchor="middle" x="136.5" y="-78.8" font-family="Arial" font-size="9.00">Type: T_IndexPath</text>
<text text-anchor="middle" x="136.5" y="-68.8" font-family="Arial" font-size="9.00">Startup: 0.275</text>
<text text-anchor="middle" x="136.5" y="-58.8" font-family="Arial" font-size="9.00">Total: 43.275</text>
<text text-anchor="middle" x="136.5" y="-48.8" font-family="Arial" font-size="9.00">Rows: 1000</text>
<text text-anchor="middle" x="136.5" y="-38.8" font-family="Arial" font-size="9.00">Parent: public.test1 (26144)</text>
</g>
<!-- plan_1723791_0&#45;&gt;plan_1723791_1 -->
<g id="edge1" class="edge">
<title>plan_1723791_0&#45;&gt;plan_1723791_1</title>
<path fill="none" stroke="#7f7f7f" stroke-dasharray="5,2" d="M136.5,-142.81C136.5,-128.69 136.5,-114.56 136.5,-100.44"/>
<text text-anchor="middle" x="131.5" y="-114.42" font-family="Arial" font-size="9.00">alt</text>
</g>
<!-- plan_1723791_3 -->
<g id="node4" class="node">
<title>plan_1723791_3</title>
<path fill="lightblue" stroke="black" d="M513,-320C513,-320 412,-320 412,-320 406,-320 400,-314 400,-308 400,-308 400,-264 400,-264 400,-258 406,-252 412,-252 412,-252 513,-252 513,-252 519,-252 525,-258 525,-264 525,-264 525,-308 525,-308 525,-314 519,-320 513,-320"/>
<text text-anchor="middle" x="462.5" y="-308.8" font-family="Arial" font-size="9.00">T_Sort</text>
<text text-anchor="middle" x="462.5" y="-298.8" font-family="Arial" font-size="9.00">Type: T_SortPath</text>
<text text-anchor="middle" x="462.5" y="-288.8" font-family="Arial" font-size="9.00">Startup: 64.829</text>
<text text-anchor="middle" x="462.5" y="-278.8" font-family="Arial" font-size="9.00">Total: 67.329</text>
<text text-anchor="middle" x="462.5" y="-268.8" font-family="Arial" font-size="9.00">Rows: 1000</text>
<text text-anchor="middle" x="462.5" y="-258.8" font-family="Arial" font-size="9.00">Outer: public.test1 (26144)</text>
</g>
<!-- plan_1723791_0&#45;&gt;plan_1723791_3 -->
<g id="edge3" class="edge">
<title>plan_1723791_0&#45;&gt;plan_1723791_3</title>
<path fill="none" stroke="#4f94cd" d="M201.13,-202.42C256.47,-220.19 336.46,-245.86 393.15,-264.06"/>
<polygon fill="#4f94cd" stroke="#4f94cd" points="392.53,-266.43 399.94,-266.24 394.03,-261.77 392.53,-266.43"/>
<text text-anchor="middle" x="283.62" y="-227.16" font-family="Arial" font-size="9.00">subpath</text>
</g>
<!-- plan_1723791_5 -->
<g id="node6" class="node">
<title>plan_1723791_5</title>
<path fill="lightgreen" stroke="black" stroke-width="3" d="M513,-209C513,-209 412,-209 412,-209 406,-209 400,-203 400,-197 400,-197 400,-143 400,-143 400,-137 406,-131 412,-131 412,-131 513,-131 513,-131 519,-131 525,-137 525,-143 525,-143 525,-197 525,-197 525,-203 519,-209 513,-209"/>
<text text-anchor="middle" x="462.5" y="-197.8" font-family="Arial" font-size="9.00">T_Agg</text>
<text text-anchor="middle" x="462.5" y="-187.8" font-family="Arial" font-size="9.00">[CHOSEN]</text>
<text text-anchor="middle" x="462.5" y="-177.8" font-family="Arial" font-size="9.00">Type: T_AggPath</text>
<text text-anchor="middle" x="462.5" y="-167.8" font-family="Arial" font-size="9.00">Startup: 20.000</text>
<text text-anchor="middle" x="462.5" y="-157.8" font-family="Arial" font-size="9.00">Total: 30.000</text>
<text text-anchor="middle" x="462.5" y="-147.8" font-family="Arial" font-size="9.00">Rows: 1000</text>
<text text-anchor="middle" x="462.5" y="-137.8" font-family="Arial" font-size="9.00">Outer: public.test1 (26144)</text>
</g>
<!-- plan_1723791_0&#45;&gt;plan_1723791_5 -->
<g id="edge5" class="edge">
<title>plan_1723791_0&#45;&gt;plan_1723791_5</title>
<path fill="none" stroke="#4f94cd" d="M201.13,-179.64C256.35,-177.6 336.13,-174.64 392.8,-172.54"/>
<polygon fill="#4f94cd" stroke="#4f94cd" points="393.04,-174.99 399.94,-172.28 392.86,-170.09 393.04,-174.99"/>
<text text-anchor="middle" x="283.4" y="-168.77" font-family="Arial" font-size="9.00">subpath</text>
</g>
<!-- plan_1723791_4 -->
<g id="node5" class="node">
<title>plan_1723791_4</title>
<path fill="lightblue" stroke="black" d="M703,-204C703,-204 602,-204 602,-204 596,-204 590,-198 590,-192 590,-192 590,-148 590,-148 590,-142 596,-136 602,-136 602,-136 703,-136 703,-136 709,-136 715,-142 715,-148 715,-148 715,-192 715,-192 715,-198 709,-204 703,-204"/>
<text text-anchor="middle" x="652.5" y="-192.8" font-family="Arial" font-size="9.00">T_Agg</text>
<text text-anchor="middle" x="652.5" y="-182.8" font-family="Arial" font-size="9.00">Type: T_AggPath</text>
<text text-anchor="middle" x="652.5" y="-172.8" font-family="Arial" font-size="9.00">Startup: 0.275</text>
<text text-anchor="middle" x="652.5" y="-162.8" font-family="Arial" font-size="9.00">Total: 58.275</text>
<text text-anchor="middle" x="652.5" y="-152.8" font-family="Arial" font-size="9.00">Rows: 1000</text>
<text text-anchor="middle" x="652.5" y="-142.8" font-family="Arial" font-size="9.00">Outer: public.test1 (26144)</text>
</g>
<!-- plan_1723791_1&#45;&gt;plan_1723791_4 -->
<g id="edge4" class="edge">
<title>plan_1723791_1&#45;&gt;plan_1723791_4</title>
<path fill="none" stroke="#4f94cd" d="M201.15,-66.85C278.96,-69.32 413.99,-78.32 525,-110 544.57,-115.58 564.87,-123.93 583.32,-132.64"/>
<polygon fill="#4f94cd" stroke="#4f94cd" points="582.67,-135.04 590.04,-135.86 584.79,-130.62 582.67,-135.04"/>
<text text-anchor="middle" x="381.06" y="-76.43" font-family="Arial" font-size="9.00">subpath</text>
</g>
<!-- plan_1723791_2 -->
<g id="node3" class="node">
<title>plan_1723791_2</title>
<path fill="lightblue" stroke="black" d="M855,-247C855,-247 792,-247 792,-247 786,-247 780,-241 780,-235 780,-235 780,-201 780,-201 780,-195 786,-189 792,-189 792,-189 855,-189 855,-189 861,-189 867,-195 867,-201 867,-201 867,-235 867,-235 867,-241 861,-247 855,-247"/>
<text text-anchor="middle" x="823.5" y="-235.8" font-family="Arial" font-size="9.00">T_Agg</text>
<text text-anchor="middle" x="823.5" y="-225.8" font-family="Arial" font-size="9.00">Type: T_AggPath</text>
<text text-anchor="middle" x="823.5" y="-215.8" font-family="Arial" font-size="9.00">Startup: 64.829</text>
<text text-anchor="middle" x="823.5" y="-205.8" font-family="Arial" font-size="9.00">Total: 82.329</text>
<text text-anchor="middle" x="823.5" y="-195.8" font-family="Arial" font-size="9.00">Rows: 1000</text>
</g>
<!-- plan_1723791_3&#45;&gt;plan_1723791_2 -->
<g id="edge2" class="edge">
<title>plan_1723791_3&#45;&gt;plan_1723791_2</title>
<path fill="none" stroke="#4f94cd" d="M525.21,-274.31C595.19,-261.06 707.92,-239.7 772.59,-227.45"/>
<polygon fill="#4f94cd" stroke="#4f94cd" points="773.43,-229.79 779.85,-226.08 772.52,-224.97 773.43,-229.79"/>
<text text-anchor="middle" x="635.48" y="-243.01" font-family="Arial" font-size="9.00">subpath</text>
</g>
<!-- plan_1723791_4&#45;&gt;plan_1723791_2 -->
<!-- plan_1723791_5&#45;&gt;plan_1723791_4 -->
<!-- stats -->
<g id="node7" class="node">
<title>stats</title>
<polygon fill="lightyellow" stroke="black" points="202,-320 65,-320 65,-272 208,-272 208,-314 202,-320"/>
<polyline fill="none" stroke="black" points="202,-320 202,-314 "/>
<polyline fill="none" stroke="black" points="208,-314 202,-314 "/>
<text text-anchor="middle" x="136.5" y="-308.8" font-family="Arial" font-size="9.00">Statistics</text>
<text text-anchor="middle" x="136.5" y="-298.8" font-family="Arial" font-size="9.00">Total paths considered: 6</text>
<text text-anchor="middle" x="136.5" y="-288.8" font-family="Arial" font-size="9.00">Cheapest: T_SeqScan (15.00)</text>
<text text-anchor="middle" x="136.5" y="-278.8" font-family="Arial" font-size="9.00">Most expensive: T_Agg (82.33)</text>
</g>
<!-- legend -->
<g id="node8" class="node">
<title>legend</title>
<polygon fill="white" stroke="black" points="215,-431 52,-431 52,-363 221,-363 221,-425 215,-431"/>
<polyline fill="none" stroke="black" points="215,-431 215,-425 "/>
<polyline fill="none" stroke="black" points="221,-425 215,-425 "/>
<text text-anchor="middle" x="136.5" y="-419.8" font-family="Arial" font-size="9.00">Legend</text>
<text text-anchor="middle" x="136.5" y="-409.8" font-family="Arial" font-size="9.00">Blue edge: outer/subpath input</text>
<text text-anchor="middle" x="136.5" y="-399.8" font-family="Arial" font-size="9.00">Orange edge: inner input</text>
<text text-anchor="middle" x="136.5" y="-389.8" font-family="Arial" font-size="9.00">Dashed cluster: relation/join group</text>
<text text-anchor="middle" x="136.5" y="-379.8" font-family="Arial" font-size="9.00">Green node: selected plan</text>
<text text-anchor="middle" x="136.5" y="-369.8" font-family="Arial" font-size="9.00">Black edge: relation path progression</text>
</g>
</g>
</svg>
