<?xml version="1.0" encoding="UTF-8" standalone="no"?>
<!DOCTYPE svg PUBLIC "-//W3C//DTD SVG 1.1//EN"
 "http://www.w3.org/Graphics/SVG/1.1/DTD/svg11.dtd">
<!-- Generated by graphviz version 2.43.0 (0)
 -->
<!-- Title: %3 Pages: 1 -->
<svg width="1321pt" height="1636pt"
 viewBox="0.00 0.00 1321.01 1636.00" xmlns="http://www.w3.org/2000/svg" xmlns:xlink="http://www.w3.org/1999/xlink">
<g id="graph0" class="graph" transform="scale(1 1) rotate(0) translate(4 1632)">
<title>%3</title>
<polygon fill="white" stroke="transparent" points="-4,4 -4,-1632 1317.01,-1632 1317.01,4 -4,4"/>
<g id="clust1" class="cluster">
<title>cluster_left</title>
<polygon fill="none" stroke="black" points="62.51,-135 62.51,-845 335.51,-845 335.51,-135 62.51,-135"/>
</g>
<g id="clust2" class="cluster">
<title>cluster_relations</title>
<polygon fill="none" stroke="black" points="70.51,-143 70.51,-837 327.51,-837 327.51,-143 70.51,-143"/>
</g>
<g id="clust3" class="cluster">
<title>cluster_rel_0</title>
<path fill="none" stroke="#a6a6a6" stroke-width="1.2" stroke-dasharray="5,2" d="M90.51,-605C90.51,-605 307.51,-605 307.51,-605 313.51,-605 319.51,-611 319.51,-617 319.51,-617 319.51,-817 319.51,-817 319.51,-823 313.51,-829 307.51,-829 307.51,-829 90.51,-829 90.51,-829 84.51,-829 78.51,-823 78.51,-817 78.51,-817 78.51,-617 78.51,-617 78.51,-611 84.51,-605 90.51,-605"/>
<text text-anchor="middle" x="199.01" y="-817" font-family="Arial" font-size="10.00">PID 1723791 • Relation RTI 1 (public.test1 (26144))</text>
</g>
<g id="clust4" class="cluster">
<title>cluster_rel_1</title>
<path fill="none" stroke="#a6a6a6" stroke-width="1.2" stroke-dasharray="5,2" d="M90.51,-151C90.51,-151 307.51,-151 307.51,-151 313.51,-151 319.51,-157 319.51,-163 319.51,-163 319.51,-585 319.51,-585 319.51,-591 313.51,-597 307.51,-597 307.51,-597 90.51,-597 90.51,-597 84.51,-597 78.51,-591 78.51,-585 78.51,-585 78.51,-163 78.51,-163 78.51,-157 84.51,-151 90.51,-151"/>
<text text-anchor="middle" x="199.01" y="-585" font-family="Arial" font-size="10.00">PID 1723791 • Relation RTI 2 (public.test2 (26149))</text>
</g>
<g id="clust5" class="cluster">
<title>cluster_join_0</title>
<path fill="none" stroke="#6e7b8b" stroke-width="1.2" stroke-dasharray="5,2" d="M486.01,-641C486.01,-641 1293.01,-641 1293.01,-641 1299.01,-641 1305.01,-647 1305.01,-653 1305.01,-653 1305.01,-994 1305.01,-994 1305.01,-1000 1299.01,-1006 1293.01,-1006 1293.01,-1006 486.01,-1006 486.01,-1006 480.01,-1006 474.01,-1000 474.01,-994 474.01,-994 474.01,-653 474.01,-653 474.01,-647 480.01,-641 486.01,-641"/>
<text text-anchor="middle" x="889.51" y="-994" font-family="Arial" font-size="10.00">PID 1723791 • JOIN_LEFT (outer: RTI 1, inner: RTI 2)</text>
</g>
<g id="clust6" class="cluster">
<title>cluster_join_1</title>
<path fill="none" stroke="#6e7b8b" stroke-width="1.2" stroke-dasharray="5,2" d="M676.01,-520C676.01,-520 913.01,-520 913.01,-520 919.01,-520 925.01,-526 925.01,-532 925.01,-532 925.01,-621 925.01,-621 925.01,-627 919.01,-633 913.01,-633 913.01,-633 676.01,-633 676.01,-633 670.01,-633 664.01,-627 664.01,-621 664.01,-621 664.01,-532 664.01,-532 664.01,-526 670.01,-520 676.01,-520"/>
<text text-anchor="middle" x="794.51" y="-621" font-family="Arial" font-size="10.00">PID 1723791 • JOIN_RIGHT (outer: RTI 2, inner: RTI 1)</text>
</g>
<!-- plan_1723791_0 -->
<g id="node1" class="node">
<title>plan_1723791_0</title>
<path fill="lightgreen" stroke="black" stroke-width="3" d="M251.51,-691C251.51,-691 146.51,-691 146.51,-691 140.51,-691 134.51,-685 134.51,-679 134.51,-679 134.51,-625 134.51,-625 134.51,-619 140.51,-613 146.51,-613 146.51,-613 251.51,-613 251.51,-613 257.51,-613 263.51,-619 263.51,-625 263.51,-625 263.51,-679 263.51,-679 263.51,-685 257.51,-691 251.51,-691"/>
<text text-anchor="middle" x="199.01" y="-679.8" font-family="Arial" font-size="9.00">T_SeqScan</text>
<text text-anchor="middle" x="199.01" y="-669.8" font-family="Arial" font-size="9.00">[CHOSEN]</text>
<text text-anchor="middle" x="199.01" y="-659.8" font-family="Arial" font-size="9.00">Type: T_Path</text>
<text text-anchor="middle" x="199.01" y="-649.8" font-family="Arial" font-size="9.00">Startup: 0.000</text>
<text text-anchor="middle" x="199.01" y="-639.8" font-family="Arial" font-size="9.00">Total: 15.000</text>
<text text-anchor="middle" x="199.01" y="-629.8" font-family="Arial" font-size="9.00">Rows: 1000</text>
<text text-anchor="middle" x="199.01" y="-619.8" font-family="Arial" font-size="9.00">Parent: public.test1 (26144)</text>
</g>
<!-- plan_1723791_1 -->
<g id="node2" class="node">
<title>plan_1723791_1</title>
<path fill="lightblue" stroke="black" d="M251.51,-802C251.51,-802 146.51,-802 146.51,-802 140.51,-802 134.51,-796 134.51,-790 134.51,-790 134.51,-746 134.51,-746 134.51,-740 140.51,-734 146.51,-734 146.51,-734 251.51,-734 251.51,-734 257.51,-734 263.51,-740 263.51,-746 263.51,-746 263.51,-790 263.51,-790 263.51,-796 257.51,-802 251.51,-802"/>
<text text-anchor="middle" x="199.01" y="-790.8" font-family="Arial" font-size="9.00">T_IndexOnlyScan</text>
<text text-anchor="middle" x="199.01" y="-780.8" font-family="Arial" font-size="9.00">Type: T_IndexPath</text>
<text text-anchor="middle" x="199.01" y="-770.8" font-family="Arial" font-size="9.00">Startup: 0.275</text>
<text text-anchor="middle" x="199.01" y="-760.8" font-family="Arial" font-size="9.00">Total: 43.275</text>
<text text-anchor="middle" x="199.01" y="-750.8" font-family="Arial" font-size="9.00">Rows: 1000</text>
<text text-anchor="middle" x="199.01" y="-740.8" font-family="Arial" font-size="9.00">Parent: public.test1 (26144)</text>
</g>
<!-- plan_1723791_0&#45;&gt;plan_1723791_1 -->
<g id="edge1" class="edge">
<title>plan_1723791_0&#45;&gt;plan_1723791_1</title>
<path fill="none" stroke="#7f7f7f" stroke-dasharray="5,2" d="M199.01,-691.42C199.01,-705.58 199.01,-719.74 199.01,-733.9"/>
<text text-anchor="middle" x="194.01" y="-705.46" font-family="Arial" font-size="9.00">alt</text>
</g>
<!-- plan_1723791_2 -->
<g id="node3" class="node">
<title>plan_1723791_2</title>
<path fill="lightgreen" stroke="black" stroke-width="3" d="M251.51,-459C251.51,-459 146.51,-459 146.51,-459 140.51,-459 134.51,-453 134.51,-447 134.51,-447 134.51,-393 134.51,-393 134.51,-387 140.51,-381 146.51,-381 146.51,-381 251.51,-381 251.51,-381 257.51,-381 263.51,-387 263.51,-393 263.51,-393 263.51,-447 263.51,-447 263.51,-453 257.51,-459 251.51,-459"/>
<text text-anchor="middle" x="199.01" y="-447.8" font-family="Arial" font-size="9.00">T_SeqScan</text>
<text text-anchor="middle" x="199.01" y="-437.8" font-family="Arial" font-size="9.00">[CHOSEN]</text>
<text text-anchor="middle" x="199.01" y="-427.8" font-family="Arial" font-size="9.00">Type: T_Path</text>
<text text-anchor="middle" x="199.01" y="-417.8" font-family="Arial" font-size="9.00">Startup: 0.000</text>
<text text-anchor="middle" x="199.01" y="-407.8" font-family="Arial" font-size="9.00">Total: 15.000</text>
<text text-anchor="middle" x="199.01" y="-397.8" font-family="Arial" font-size="9.00">Rows: 1000</text>
<text text-anchor="middle" x="199.01" y="-387.8" font-family="Arial" font-size="9.00">Parent: public.test2 (26149)</text>
</g>
<!-- plan_1723791_0&#45;&gt;plan_1723791_2 -->
<!-- plan_1723791_6 -->
<g id="node7" class="node">
<title>plan_1723791_6</title>
<path fill="lightblue" stroke="black" d="M1095.01,-727C1095.01,-727 994.01,-727 994.01,-727 988.01,-727 982.01,-721 982.01,-715 982.01,-715 982.01,-661 982.01,-661 982.01,-655 988.01,-649 994.01,-649 994.01,-649 1095.01,-649 1095.01,-649 1101.01,-649 1107.01,-655 1107.01,-661 1107.01,-661 1107.01,-715 1107.01,-715 1107.01,-721 1101.01,-727 1095.01,-727"/>
<text text-anchor="middle" x="1044.51" y="-715.8" font-family="Arial" font-size="9.00">T_MergeJoin</text>
<text text-anchor="middle" x="1044.51" y="-705.8" font-family="Arial" font-size="9.00">Type: T_MergePath</text>
<text text-anchor="middle" x="1044.51" y="-695.8" font-family="Arial" font-size="9.00">Startup: 129.658</text>
<text text-anchor="middle" x="1044.51" y="-685.8" font-family="Arial" font-size="9.00">Total: 149.658</text>
<text text-anchor="middle" x="1044.51" y="-675.8" font-family="Arial" font-size="9.00">Rows: 1000</text>
<text text-anchor="middle" x="1044.51" y="-665.8" font-family="Arial" font-size="9.00">Outer: public.test1 (26144)</text>
<text text-anchor="middle" x="1044.51" y="-655.8" font-family="Arial" font-size="9.00">Inner: public.test2 (26149)</text>
</g>
<!-- plan_1723791_0&#45;&gt;plan_1723791_6 -->
<g id="edge6" class="edge">
<title>plan_1723791_0&#45;&gt;plan_1723791_6</title>
<path fill="none" stroke="#4f94cd" d="M263.56,-640.74C287.96,-634.03 314.88,-623.47 335.51,-607 428.46,-532.79 370.4,-436.42 474.01,-378 648.61,-279.55 759.9,-264.35 925.01,-378 1012.07,-437.93 1035.21,-571.16 1041.33,-641.86"/>
<polygon fill="#4f94cd" stroke="#4f94cd" points="1038.89,-642.14 1041.9,-648.92 1043.78,-641.74 1038.89,-642.14"/>
<text text-anchor="middle" x="374.44" y="-532.3" font-family="Arial" font-size="9.00">outer</text>
</g>
<!-- plan_1723791_7 -->
<g id="node8" class="node">
<title>plan_1723791_7</title>
<path fill="lightblue" stroke="black" d="M1095.01,-848C1095.01,-848 994.01,-848 994.01,-848 988.01,-848 982.01,-842 982.01,-836 982.01,-836 982.01,-782 982.01,-782 982.01,-776 988.01,-770 994.01,-770 994.01,-770 1095.01,-770 1095.01,-770 1101.01,-770 1107.01,-776 1107.01,-782 1107.01,-782 1107.01,-836 1107.01,-836 1107.01,-842 1101.01,-848 1095.01,-848"/>
<text text-anchor="middle" x="1044.51" y="-836.8" font-family="Arial" font-size="9.00">T_NestLoop</text>
<text text-anchor="middle" x="1044.51" y="-826.8" font-family="Arial" font-size="9.00">Type: T_NestPath</text>
<text text-anchor="middle" x="1044.51" y="-816.8" font-family="Arial" font-size="9.00">Startup: 0.000</text>
<text text-anchor="middle" x="1044.51" y="-806.8" font-family="Arial" font-size="9.00">Total: 27487.555</text>
<text text-anchor="middle" x="1044.51" y="-796.8" font-family="Arial" font-size="9.00">Rows: 1000</text>
<text text-anchor="middle" x="1044.51" y="-786.8" font-family="Arial" font-size="9.00">Outer: public.test1 (26144)</text>
<text text-anchor="middle" x="1044.51" y="-776.8" font-family="Arial" font-size="9.00">Inner: public.test2 (26149)</text>
</g>
<!-- plan_1723791_0&#45;&gt;plan_1723791_7 -->
<g id="edge8" class="edge">
<title>plan_1723791_0&#45;&gt;plan_1723791_7</title>
<path fill="none" stroke="#4f94cd" d="M263.63,-631.38C381.13,-593.47 623.86,-516.01 664.01,-510 778.73,-492.84 833.96,-438.12 925.01,-510 1010.71,-577.67 928.13,-654.01 982.01,-749 984.97,-754.22 988.52,-759.29 992.4,-764.11"/>
<polygon fill="#4f94cd" stroke="#4f94cd" points="990.7,-765.9 997.09,-769.66 994.45,-762.73 990.7,-765.9"/>
<text text-anchor="middle" x="590.04" y="-518.96" font-family="Arial" font-size="9.00">outer</text>
</g>
<!-- plan_1723791_8 -->
<g id="node9" class="node">
<title>plan_1723791_8</title>
<path fill="lightblue" stroke="black" d="M595.01,-979C595.01,-979 494.01,-979 494.01,-979 488.01,-979 482.01,-973 482.01,-967 482.01,-967 482.01,-913 482.01,-913 482.01,-907 488.01,-901 494.01,-901 494.01,-901 595.01,-901 595.01,-901 601.01,-901 607.01,-907 607.01,-913 607.01,-913 607.01,-967 607.01,-967 607.01,-973 601.01,-979 595.01,-979"/>
<text text-anchor="middle" x="544.51" y="-967.8" font-family="Arial" font-size="9.00">T_NestLoop</text>
<text text-anchor="middle" x="544.51" y="-957.8" font-family="Arial" font-size="9.00">Type: T_NestPath</text>
<text text-anchor="middle" x="544.51" y="-947.8" font-family="Arial" font-size="9.00">Startup: 0.000</text>
<text text-anchor="middle" x="544.51" y="-937.8" font-family="Arial" font-size="9.00">Total: 15017.530</text>
<text text-anchor="middle" x="544.51" y="-927.8" font-family="Arial" font-size="9.00">Rows: 1000</text>
<text text-anchor="middle" x="544.51" y="-917.8" font-family="Arial" font-size="9.00">Outer: public.test1 (26144)</text>
<text text-anchor="middle" x="544.51" y="-907.8" font-family="Arial" font-size="9.00">Inner: public.test2 (26149)</text>
</g>
<!-- plan_1723791_0&#45;&gt;plan_1723791_8 -->
<g id="edge10" class="edge">
<title>plan_1723791_0&#45;&gt;plan_1723791_8</title>
<path fill="none" stroke="#4f94cd" d="M263.67,-673.65C287.54,-683.51 314.06,-696.67 335.51,-713 412.23,-771.41 406.5,-811.14 474.01,-880 479.22,-885.32 484.84,-890.69 490.55,-895.92"/>
<polygon fill="#4f94cd" stroke="#4f94cd" points="488.98,-897.8 495.81,-900.68 492.27,-894.17 488.98,-897.8"/>
<text text-anchor="middle" x="385.53" y="-767.95" font-family="Arial" font-size="9.00">outer</text>
</g>
<!-- plan_1723791_14 -->
<g id="node15" class="node">
<title>plan_1723791_14</title>
<path fill="lightgreen" stroke="black" stroke-width="3" d="M595.01,-737C595.01,-737 494.01,-737 494.01,-737 488.01,-737 482.01,-731 482.01,-725 482.01,-725 482.01,-661 482.01,-661 482.01,-655 488.01,-649 494.01,-649 494.01,-649 595.01,-649 595.01,-649 601.01,-649 607.01,-655 607.01,-661 607.01,-661 607.01,-725 607.01,-725 607.01,-731 601.01,-737 595.01,-737"/>
<text text-anchor="middle" x="544.51" y="-725.8" font-family="Arial" font-size="9.00">T_HashJoin</text>
<text text-anchor="middle" x="544.51" y="-715.8" font-family="Arial" font-size="9.00">[CHOSEN]</text>
<text text-anchor="middle" x="544.51" y="-705.8" font-family="Arial" font-size="9.00">Type: T_HashPath</text>
<text text-anchor="middle" x="544.51" y="-695.8" font-family="Arial" font-size="9.00">Startup: 27.500</text>
<text text-anchor="middle" x="544.51" y="-685.8" font-family="Arial" font-size="9.00">Total: 45.136</text>
<text text-anchor="middle" x="544.51" y="-675.8" font-family="Arial" font-size="9.00">Rows: 1000</text>
<text text-anchor="middle" x="544.51" y="-665.8" font-family="Arial" font-size="9.00">Outer: public.test1 (26144)</text>
<text text-anchor="middle" x="544.51" y="-655.8" font-family="Arial" font-size="9.00">Inner: public.test2 (26149)</text>
</g>
<!-- plan_1723791_0&#45;&gt;plan_1723791_14 -->
<g id="edge20" class="edge">
<title>plan_1723791_0&#45;&gt;plan_1723791_14</title>
<path fill="none" stroke="#4f94cd" d="M263.73,-681.57C316.31,-704.61 387,-732.08 417.01,-728 436.11,-725.41 456.41,-720.7 475.02,-715.57"/>
<polygon fill="#4f94cd" stroke="#4f94cd" points="475.72,-717.92 481.79,-713.66 474.39,-713.2 475.72,-717.92"/>
<text text-anchor="middle" x="355.1" y="-713.11" font-family="Arial" font-size="9.00">outer</text>
</g>
<!-- plan_1723791_15 -->
<g id="node16" class="node">
<title>plan_1723791_15</title>
<path fill="lightblue" stroke="black" d="M845.01,-606C845.01,-606 744.01,-606 744.01,-606 738.01,-606 732.01,-600 732.01,-594 732.01,-594 732.01,-540 732.01,-540 732.01,-534 738.01,-528 744.01,-528 744.01,-528 845.01,-528 845.01,-528 851.01,-528 857.01,-534 857.01,-540 857.01,-540 857.01,-594 857.01,-594 857.01,-600 851.01,-606 845.01,-606"/>
<text text-anchor="middle" x="794.51" y="-594.8" font-family="Arial" font-size="9.00">T_HashJoin</text>
<text text-anchor="middle" x="794.51" y="-584.8" font-family="Arial" font-size="9.00">Type: T_HashPath</text>
<text text-anchor="middle" x="794.51" y="-574.8" font-family="Arial" font-size="9.00">Startup: 27.500</text>
<text text-anchor="middle" x="794.51" y="-564.8" font-family="Arial" font-size="9.00">Total: 45.136</text>
<text text-anchor="middle" x="794.51" y="-554.8" font-family="Arial" font-size="9.00">Rows: 1000</text>
<text text-anchor="middle" x="794.51" y="-544.8" font-family="Arial" font-size="9.00">Outer: public.test2 (26149)</text>
<text text-anchor="middle" x="794.51" y="-534.8" font-family="Arial" font-size="9.00">Inner: public.test1 (26144)</text>
</g>
<!-- plan_1723791_0&#45;&gt;plan_1723791_15 -->
<g id="edge23" class="edge">
<title>plan_1723791_0&#45;&gt;plan_1723791_15</title>
<path fill="none" stroke="#cd6600" d="M263.83,-651.17C307.17,-650.01 365.71,-647.31 417.01,-641 447.07,-637.3 624.47,-601.5 724.67,-581.09"/>
<polygon fill="#cd6600" stroke="#cd6600" points="725.38,-583.44 731.75,-579.64 724.4,-578.64 725.38,-583.44"/>
<text text-anchor="middle" x="488.87" y="-618.85" font-family="Arial" font-size="9.00">inner</text>
</g>
<!-- plan_1723791_3 -->
<g id="node4" class="node">
<title>plan_1723791_3</title>
<path fill="lightblue" stroke="black" d="M251.51,-570C251.51,-570 146.51,-570 146.51,-570 140.51,-570 134.51,-564 134.51,-558 134.51,-558 134.51,-514 134.51,-514 134.51,-508 140.51,-502 146.51,-502 146.51,-502 251.51,-502 251.51,-502 257.51,-502 263.51,-508 263.51,-514 263.51,-514 263.51,-558 263.51,-558 263.51,-564 257.51,-570 251.51,-570"/>
<text text-anchor="middle" x="199.01" y="-558.8" font-family="Arial" font-size="9.00">T_IndexOnlyScan</text>
<text text-anchor="middle" x="199.01" y="-548.8" font-family="Arial" font-size="9.00">Type: T_IndexPath</text>
<text text-anchor="middle" x="199.01" y="-538.8" font-family="Arial" font-size="9.00">Startup: 0.275</text>
<text text-anchor="middle" x="199.01" y="-528.8" font-family="Arial" font-size="9.00">Total: 43.275</text>
<text text-anchor="middle" x="199.01" y="-518.8" font-family="Arial" font-size="9.00">Rows: 1000</text>
<text text-anchor="middle" x="199.01" y="-508.8" font-family="Arial" font-size="9.00">Parent: public.test2 (26149)</text>
</g>
<!-- plan_1723791_1&#45;&gt;plan_1723791_3 -->
<!-- plan_1723791_10 -->
<g id="node11" class="node">
<title>plan_1723791_10</title>
<path fill="lightblue" stroke="black" d="M1285.01,-848C1285.01,-848 1184.01,-848 1184.01,-848 1178.01,-848 1172.01,-842 1172.01,-836 1172.01,-836 1172.01,-782 1172.01,-782 1172.01,-776 1178.01,-770 1184.01,-770 1184.01,-770 1285.01,-770 1285.01,-770 1291.01,-770 1297.01,-776 1297.01,-782 1297.01,-782 1297.01,-836 1297.01,-836 1297.01,-842 1291.01,-848 1285.01,-848"/>
<text text-anchor="middle" x="1234.51" y="-836.8" font-family="Arial" font-size="9.00">T_NestLoop</text>
<text text-anchor="middle" x="1234.51" y="-826.8" font-family="Arial" font-size="9.00">Type: T_NestPath</text>
<text text-anchor="middle" x="1234.51" y="-816.8" font-family="Arial" font-size="9.00">Startup: 0.275</text>
<text text-anchor="middle" x="1234.51" y="-806.8" font-family="Arial" font-size="9.00">Total: 27515.830</text>
<text text-anchor="middle" x="1234.51" y="-796.8" font-family="Arial" font-size="9.00">Rows: 1000</text>
<text text-anchor="middle" x="1234.51" y="-786.8" font-family="Arial" font-size="9.00">Outer: public.test1 (26144)</text>
<text text-anchor="middle" x="1234.51" y="-776.8" font-family="Arial" font-size="9.00">Inner: public.test2 (26149)</text>
</g>
<!-- plan_1723791_1&#45;&gt;plan_1723791_10 -->
<g id="edge12" class="edge">
<title>plan_1723791_1&#45;&gt;plan_1723791_10</title>
<path fill="none" stroke="#4f94cd" d="M202.41,-802.44C213.57,-933.25 272.07,-1392 543.51,-1392 543.51,-1392 543.51,-1392 795.51,-1392 1063.53,-1392 1187.8,-993.27 1222.78,-855.31"/>
<polygon fill="#4f94cd" stroke="#4f94cd" points="1225.25,-855.54 1224.57,-848.16 1220.5,-854.35 1225.25,-855.54"/>
<text text-anchor="middle" x="1168.92" y="-987.51" font-family="Arial" font-size="9.00">outer</text>
</g>
<!-- plan_1723791_11 -->
<g id="node12" class="node">
<title>plan_1723791_11</title>
<path fill="lightblue" stroke="black" d="M845.01,-979C845.01,-979 744.01,-979 744.01,-979 738.01,-979 732.01,-973 732.01,-967 732.01,-967 732.01,-913 732.01,-913 732.01,-907 738.01,-901 744.01,-901 744.01,-901 845.01,-901 845.01,-901 851.01,-901 857.01,-907 857.01,-913 857.01,-913 857.01,-967 857.01,-967 857.01,-973 851.01,-979 845.01,-979"/>
<text text-anchor="middle" x="794.51" y="-967.8" font-family="Arial" font-size="9.00">T_NestLoop</text>
<text text-anchor="middle" x="794.51" y="-957.8" font-family="Arial" font-size="9.00">Type: T_NestPath</text>
<text text-anchor="middle" x="794.51" y="-947.8" font-family="Arial" font-size="9.00">Startup: 0.275</text>
<text text-anchor="middle" x="794.51" y="-937.8" font-family="Arial" font-size="9.00">Total: 15045.805</text>
<text text-anchor="middle" x="794.51" y="-927.8" font-family="Arial" font-size="9.00">Rows: 1000</text>
<text text-anchor="middle" x="794.51" y="-917.8" font-family="Arial" font-size="9.00">Outer: public.test1 (26144)</text>
<text text-anchor="middle" x="794.51" y="-907.8" font-family="Arial" font-size="9.00">Inner: public.test2 (26149)</text>
</g>
<!-- plan_1723791_1&#45;&gt;plan_1723791_11 -->
<g id="edge14" class="edge">
<title>plan_1723791_1&#45;&gt;plan_1723791_11</title>
<path fill="none" stroke="#4f94cd" d="M211.98,-802.1C237.92,-870.88 305.96,-1026.58 416.01,-1108 484.49,-1158.67 528.2,-1156.33 607.01,-1124 675.07,-1096.08 731.57,-1029.99 763.95,-985.11"/>
<polygon fill="#4f94cd" stroke="#4f94cd" points="766.1,-986.32 768.17,-979.2 762.11,-983.48 766.1,-986.32"/>
<text text-anchor="middle" x="313.66" y="-1006.97" font-family="Arial" font-size="9.00">outer</text>
</g>
<!-- plan_1723791_12 -->
<g id="node13" class="node">
<title>plan_1723791_12</title>
<path fill="lightblue" stroke="black" d="M845.01,-858C845.01,-858 744.01,-858 744.01,-858 738.01,-858 732.01,-852 732.01,-846 732.01,-846 732.01,-792 732.01,-792 732.01,-786 738.01,-780 744.01,-780 744.01,-780 845.01,-780 845.01,-780 851.01,-780 857.01,-786 857.01,-792 857.01,-792 857.01,-846 857.01,-846 857.01,-852 851.01,-858 845.01,-858"/>
<text text-anchor="middle" x="794.51" y="-846.8" font-family="Arial" font-size="9.00">T_MergeJoin</text>
<text text-anchor="middle" x="794.51" y="-836.8" font-family="Arial" font-size="9.00">Type: T_MergePath</text>
<text text-anchor="middle" x="794.51" y="-826.8" font-family="Arial" font-size="9.00">Startup: 65.104</text>
<text text-anchor="middle" x="794.51" y="-816.8" font-family="Arial" font-size="9.00">Total: 125.604</text>
<text text-anchor="middle" x="794.51" y="-806.8" font-family="Arial" font-size="9.00">Rows: 1000</text>
<text text-anchor="middle" x="794.51" y="-796.8" font-family="Arial" font-size="9.00">Outer: public.test1 (26144)</text>
<text text-anchor="middle" x="794.51" y="-786.8" font-family="Arial" font-size="9.00">Inner: public.test2 (26149)</text>
</g>
<!-- plan_1723791_1&#45;&gt;plan_1723791_12 -->
<g id="edge16" class="edge">
<title>plan_1723791_1&#45;&gt;plan_1723791_12</title>
<path fill="none" stroke="#4f94cd" d="M211.71,-802.12C236.84,-869.29 303.02,-1017.23 416.01,-1076 491.32,-1115.17 539.12,-1126.96 607.01,-1076 679.56,-1021.54 605.09,-948.99 664.01,-880 680.02,-861.25 703.07,-847.87 725.3,-838.52"/>
<polygon fill="#4f94cd" stroke="#4f94cd" points="726.28,-840.76 731.85,-835.86 724.44,-836.22 726.28,-840.76"/>
<text text-anchor="middle" x="638" y="-895.74" font-family="Arial" font-size="9.00">outer</text>
</g>
<!-- plan_1723791_13 -->
<g id="node14" class="node">
<title>plan_1723791_13</title>
<path fill="lightblue" stroke="black" d="M595.01,-858C595.01,-858 494.01,-858 494.01,-858 488.01,-858 482.01,-852 482.01,-846 482.01,-846 482.01,-792 482.01,-792 482.01,-786 488.01,-780 494.01,-780 494.01,-780 595.01,-780 595.01,-780 601.01,-780 607.01,-786 607.01,-792 607.01,-792 607.01,-846 607.01,-846 607.01,-852 601.01,-858 595.01,-858"/>
<text text-anchor="middle" x="544.51" y="-846.8" font-family="Arial" font-size="9.00">T_MergeJoin</text>
<text text-anchor="middle" x="544.51" y="-836.8" font-family="Arial" font-size="9.00">Type: T_MergePath</text>
<text text-anchor="middle" x="544.51" y="-826.8" font-family="Arial" font-size="9.00">Startup: 0.550</text>
<text text-anchor="middle" x="544.51" y="-816.8" font-family="Arial" font-size="9.00">Total: 101.550</text>
<text text-anchor="middle" x="544.51" y="-806.8" font-family="Arial" font-size="9.00">Rows: 1000</text>
<text text-anchor="middle" x="544.51" y="-796.8" font-family="Arial" font-size="9.00">Outer: public.test1 (26144)</text>
<text text-anchor="middle" x="544.51" y="-786.8" font-family="Arial" font-size="9.00">Inner: public.test2 (26149)</text>
</g>
<!-- plan_1723791_1&#45;&gt;plan_1723791_13 -->
<g id="edge18" class="edge">
<title>plan_1723791_1&#45;&gt;plan_1723791_13</title>
<path fill="none" stroke="#4f94cd" d="M263.81,-777.47C323.78,-786.38 413.28,-799.66 474.79,-808.8"/>
<polygon fill="#4f94cd" stroke="#4f94cd" points="474.49,-811.23 481.78,-809.84 475.21,-806.38 474.49,-811.23"/>
<text text-anchor="middle" x="361.68" y="-786.44" font-family="Arial" font-size="9.00">outer</text>
</g>
<!-- plan_1723791_2&#45;&gt;plan_1723791_3 -->
<g id="edge2" class="edge">
<title>plan_1723791_2&#45;&gt;plan_1723791_3</title>
<path fill="none" stroke="#7f7f7f" stroke-dasharray="5,2" d="M199.01,-459.42C199.01,-473.58 199.01,-487.74 199.01,-501.9"/>
<text text-anchor="middle" x="194.01" y="-473.46" font-family="Arial" font-size="9.00">alt</text>
</g>
<!-- plan_1723791_2&#45;&gt;plan_1723791_6 -->
<g id="edge7" class="edge">
<title>plan_1723791_2&#45;&gt;plan_1723791_6</title>
<path fill="none" stroke="#cd6600" d="M263.75,-403.59C288.9,-394.36 316.31,-380.45 335.51,-360 406.2,-284.7 331.26,-201.04 416.01,-142 485.87,-93.32 524.19,-137.19 607.01,-157 755.67,-192.56 822.62,-174.51 925.01,-288 1016.96,-389.92 1037.71,-560.18 1042.29,-641.72"/>
<polygon fill="#cd6600" stroke="#cd6600" points="1039.85,-641.99 1042.66,-648.85 1044.74,-641.74 1039.85,-641.99"/>
<text text-anchor="middle" x="340.12" y="-332.55" font-family="Arial" font-size="9.00">inner</text>
</g>
<!-- plan_1723791_2&#45;&gt;plan_1723791_7 -->
<g id="edge9" class="edge">
<title>plan_1723791_2&#45;&gt;plan_1723791_7</title>
<path fill="none" stroke="#cd6600" d="M263.59,-399.97C404.2,-360.07 743.46,-288.66 925.01,-463 1018.49,-552.77 920.18,-635.08 982.01,-749 984.87,-754.28 988.35,-759.38 992.19,-764.23"/>
<polygon fill="#cd6600" stroke="#cd6600" points="990.48,-766 996.84,-769.8 994.24,-762.86 990.48,-766"/>
<text text-anchor="middle" x="914.01" y="-455.8" font-family="Arial" font-size="9.00">inner</text>
</g>
<!-- plan_1723791_2&#45;&gt;plan_1723791_10 -->
<g id="edge13" class="edge">
<title>plan_1723791_2&#45;&gt;plan_1723791_10</title>
<path fill="none" stroke="#cd6600" d="M263.54,-403.86C288.82,-394.64 316.37,-380.68 335.51,-360 408.5,-281.13 359.5,-223.41 416.01,-132 458.9,-62.62 461.94,0 543.51,0 543.51,0 543.51,0 795.51,0 1145.05,0 1217.06,-591.27 1230.6,-762.85"/>
<polygon fill="#cd6600" stroke="#cd6600" points="1228.17,-763.19 1231.14,-769.98 1233.05,-762.81 1228.17,-763.19"/>
<text text-anchor="middle" x="366.81" y="-326.95" font-family="Arial" font-size="9.00">inner</text>
</g>
<!-- plan_1723791_2&#45;&gt;plan_1723791_12 -->
<g id="edge17" class="edge">
<title>plan_1723791_2&#45;&gt;plan_1723791_12</title>
<path fill="none" stroke="#cd6600" d="M263.68,-435.66C289.29,-444.94 317.05,-459.27 335.51,-481 490.32,-663.3 284.37,-855.26 474.01,-1001 520.88,-1037.02 557.09,-1032.66 607.01,-1001 657.21,-969.16 621.97,-922.03 664.01,-880 680.97,-863.04 703.55,-850.2 725.1,-840.78"/>
<polygon fill="#cd6600" stroke="#cd6600" points="726.25,-842.95 731.75,-837.96 724.34,-838.44 726.25,-842.95"/>
<text text-anchor="middle" x="386.68" y="-634.57" font-family="Arial" font-size="9.00">inner</text>
</g>
<!-- plan_1723791_2&#45;&gt;plan_1723791_14 -->
<g id="edge21" class="edge">
<title>plan_1723791_2&#45;&gt;plan_1723791_14</title>
<path fill="none" stroke="#cd6600" d="M263.58,-395.54C309.82,-382.11 371.96,-373.5 417.01,-403 419.7,-404.76 486.29,-559.48 521.75,-642.17"/>
<polygon fill="#cd6600" stroke="#cd6600" points="519.65,-643.5 524.66,-648.97 524.16,-641.57 519.65,-643.5"/>
<text text-anchor="middle" x="446.06" y="-484.96" font-family="Arial" font-size="9.00">inner</text>
</g>
<!-- plan_1723791_2&#45;&gt;plan_1723791_15 -->
<g id="edge22" class="edge">
<title>plan_1723791_2&#45;&gt;plan_1723791_15</title>
<path fill="none" stroke="#4f94cd" d="M263.68,-400.79C307.21,-390.41 366.02,-381.79 417.01,-393 531.58,-418.2 652.81,-481.79 725.82,-524.71"/>
<polygon fill="#4f94cd" stroke="#4f94cd" points="724.59,-526.83 731.86,-528.28 727.08,-522.61 724.59,-526.83"/>
<text text-anchor="middle" x="502.37" y="-414.61" font-family="Arial" font-size="9.00">outer</text>
</g>
<!-- plan_1723791_4 -->
<g id="node5" class="node">
<title>plan_1723791_4</title>
<path fill="lightblue" stroke="black" d="M251.51,-338C251.51,-338 146.51,-338 146.51,-338 140.51,-338 134.51,-332 134.51,-326 134.51,-326 134.51,-282 134.51,-282 134.51,-276 140.51,-270 146.51,-270 146.51,-270 251.51,-270 251.51,-270 257.51,-270 263.51,-276 263.51,-282 263.51,-282 263.51,-326 263.51,-326 263.51,-332 257.51,-338 251.51,-338"/>
<text text-anchor="middle" x="199.01" y="-326.8" font-family="Arial" font-size="9.00">T_IndexOnlyScan</text>
<text text-anchor="middle" x="199.01" y="-316.8" font-family="Arial" font-size="9.00">Type: T_IndexPath</text>
<text text-anchor="middle" x="199.01" y="-306.8" font-family="Arial" font-size="9.00">Startup: 0.275</text>
<text text-anchor="middle" x="199.01" y="-296.8" font-family="Arial" font-size="9.00">Total: 0.333</text>
<text text-anchor="middle" x="199.01" y="-286.8" font-family="Arial" font-size="9.00">Rows: 1</text>
<text text-anchor="middle" x="199.01" y="-276.8" font-family="Arial" font-size="9.00">Parent: public.test2 (26149)</text>
</g>
<!-- plan_1723791_3&#45;&gt;plan_1723791_4 -->
<g id="edge3" class="edge">
<title>plan_1723791_3&#45;&gt;plan_1723791_4</title>
<path fill="none" stroke="#7f7f7f" stroke-dasharray="5,2" d="M134.37,-526.34C95.78,-516.69 50.44,-497.51 30.01,-459.5 13.6,-428.96 13.6,-412.04 30.01,-381.5 50.48,-343.4 95.83,-323.95 134.4,-314.07"/>
<text text-anchor="middle" x="88.04" y="-321.03" font-family="Arial" font-size="9.00">alt</text>
</g>
<!-- plan_1723791_3&#45;&gt;plan_1723791_13 -->
<g id="edge19" class="edge">
<title>plan_1723791_3&#45;&gt;plan_1723791_13</title>
<path fill="none" stroke="#cd6600" d="M263.61,-556.71C287.48,-566.21 314,-578.99 335.51,-595 412.03,-651.98 406.91,-691.17 474.01,-759 479.33,-764.38 485.07,-769.83 490.88,-775.13"/>
<polygon fill="#cd6600" stroke="#cd6600" points="489.4,-777.09 496.24,-779.96 492.68,-773.45 489.4,-777.09"/>
<text text-anchor="middle" x="385.77" y="-648.9" font-family="Arial" font-size="9.00">inner</text>
</g>
<!-- plan_1723791_4&#45;&gt;plan_1723791_1 -->
<!-- plan_1723791_5 -->
<g id="node6" class="node">
<title>plan_1723791_5</title>
<path fill="lightblue" stroke="black" d="M251.51,-227C251.51,-227 146.51,-227 146.51,-227 140.51,-227 134.51,-221 134.51,-215 134.51,-215 134.51,-171 134.51,-171 134.51,-165 140.51,-159 146.51,-159 146.51,-159 251.51,-159 251.51,-159 257.51,-159 263.51,-165 263.51,-171 263.51,-171 263.51,-215 263.51,-215 263.51,-221 257.51,-227 251.51,-227"/>
<text text-anchor="middle" x="199.01" y="-215.8" font-family="Arial" font-size="9.00">T_BitmapHeapScan</text>
<text text-anchor="middle" x="199.01" y="-205.8" font-family="Arial" font-size="9.00">Type: T_BitmapHeapPath</text>
<text text-anchor="middle" x="199.01" y="-195.8" font-family="Arial" font-size="9.00">Startup: 0.303</text>
<text text-anchor="middle" x="199.01" y="-185.8" font-family="Arial" font-size="9.00">Total: 4.315</text>
<text text-anchor="middle" x="199.01" y="-175.8" font-family="Arial" font-size="9.00">Rows: 1</text>
<text text-anchor="middle" x="199.01" y="-165.8" font-family="Arial" font-size="9.00">Parent: public.test2 (26149)</text>
</g>
<!-- plan_1723791_4&#45;&gt;plan_1723791_5 -->
<g id="edge4" class="edge">
<title>plan_1723791_4&#45;&gt;plan_1723791_5</title>
<path fill="none" stroke="#7f7f7f" stroke-dasharray="5,2" d="M199.01,-269.82C199.01,-255.63 199.01,-241.44 199.01,-227.25"/>
<text text-anchor="middle" x="194.01" y="-241.34" font-family="Arial" font-size="9.00">alt</text>
</g>
<!-- plan_1723791_9 -->
<g id="node10" class="node">
<title>plan_1723791_9</title>
<path fill="lightblue" stroke="black" d="M251.51,-1426C251.51,-1426 146.51,-1426 146.51,-1426 140.51,-1426 134.51,-1420 134.51,-1414 134.51,-1414 134.51,-1370 134.51,-1370 134.51,-1364 140.51,-1358 146.51,-1358 146.51,-1358 251.51,-1358 251.51,-1358 257.51,-1358 263.51,-1364 263.51,-1370 263.51,-1370 263.51,-1414 263.51,-1414 263.51,-1420 257.51,-1426 251.51,-1426"/>
<text text-anchor="middle" x="199.01" y="-1414.8" font-family="Arial" font-size="9.00">T_Material</text>
<text text-anchor="middle" x="199.01" y="-1404.8" font-family="Arial" font-size="9.00">Type: T_MaterialPath</text>
<text text-anchor="middle" x="199.01" y="-1394.8" font-family="Arial" font-size="9.00">Startup: 0.000</text>
<text text-anchor="middle" x="199.01" y="-1384.8" font-family="Arial" font-size="9.00">Total: 20.000</text>
<text text-anchor="middle" x="199.01" y="-1374.8" font-family="Arial" font-size="9.00">Rows: 1000</text>
<text text-anchor="middle" x="199.01" y="-1364.8" font-family="Arial" font-size="9.00">Parent: public.test2 (26149)</text>
</g>
<!-- plan_1723791_5&#45;&gt;plan_1723791_9 -->
<g id="edge5" class="edge">
<title>plan_1723791_5&#45;&gt;plan_1723791_9</title>
<path fill="none" stroke="black" d="M134.4,-203.07C95.83,-212.95 50.48,-232.4 30.01,-270.5 -27.54,-377.57 12.68,-697.19 30.01,-817.5 59.65,-1023.3 146.12,-1258.18 182.54,-1351.09"/>
<polygon fill="black" stroke="black" points="180.33,-1352.18 185.18,-1357.8 184.89,-1350.39 180.33,-1352.18"/>
</g>
<!-- plan_1723791_7&#45;&gt;plan_1723791_10 -->
<!-- plan_1723791_8&#45;&gt;plan_1723791_11 -->
<!-- plan_1723791_9&#45;&gt;plan_1723791_8 -->
<g id="edge11" class="edge">
<title>plan_1723791_9&#45;&gt;plan_1723791_8</title>
<path fill="none" stroke="#cd6600" d="M226.11,-1357.66C287.46,-1276.92 440.85,-1075.09 509.43,-984.84"/>
<polygon fill="#cd6600" stroke="#cd6600" points="511.54,-986.11 513.83,-979.06 507.64,-983.15 511.54,-986.11"/>
<text text-anchor="middle" x="358.86" y="-1161.3" font-family="Arial" font-size="9.00">inner</text>
</g>
<!-- plan_1723791_9&#45;&gt;plan_1723791_11 -->
<g id="edge15" class="edge">
<title>plan_1723791_9&#45;&gt;plan_1723791_11</title>
<path fill="none" stroke="#cd6600" d="M263.84,-1365.82C348.09,-1329.33 498.4,-1257.38 607.01,-1167 671.81,-1113.08 730.67,-1034.16 764.26,-985"/>
<polygon fill="#cd6600" stroke="#cd6600" points="766.32,-986.32 768.23,-979.16 762.27,-983.57 766.32,-986.32"/>
<text text-anchor="middle" x="533.69" y="-1206.88" font-family="Arial" font-size="9.00">inner</text>
</g>
<!-- plan_1723791_11&#45;&gt;plan_1723791_7 -->
<!-- plan_1723791_12&#45;&gt;plan_1723791_6 -->
<!-- plan_1723791_13&#45;&gt;plan_1723791_12 -->
<!-- plan_1723791_14&#45;&gt;plan_1723791_15 -->
<!-- stats -->
<g id="node17" class="node">
<title>stats</title>
<polygon fill="lightyellow" stroke="black" points="284.01,-1517 108.01,-1517 108.01,-1469 290.01,-1469 290.01,-1511 284.01,-1517"/>
<polyline fill="none" stroke="black" points="284.01,-1517 284.01,-1511 "/>
<polyline fill="none" stroke="black" points="290.01,-1511 284.01,-1511 "/>
<text text-anchor="middle" x="199.01" y="-1505.8" font-family="Arial" font-size="9.00">Statistics</text>
<text text-anchor="middle" x="199.01" y="-1495.8" font-family="Arial" font-size="9.00">Total paths considered: 16</text>
<text text-anchor="middle" x="199.01" y="-1485.8" font-family="Arial" font-size="9.00">Cheapest: T_IndexOnlyScan (0.33)</text>
<text text-anchor="middle" x="199.01" y="-1475.8" font-family="Arial" font-size="9.00">Most expensive: T_NestLoop (27515.83)</text>
</g>
<!-- legend -->
<g id="node18" class="node">
<title>legend</title>
<polygon fill="white" stroke="black" points="277.51,-1628 114.51,-1628 114.51,-1560 283.51,-1560 283.51,-1622 277.51,-1628"/>
<polyline fill="none" stroke="black" points="277.51,-1628 277.51,-1622 "/>
<polyline fill="none" stroke="black" points="283.51,-1622 277.51,-1622 "/>
<text text-anchor="middle" x="199.01" y="-1616.8" font-family="Arial" font-size="9.00">Legend</text>
<text text-anchor="middle" x="199.01" y="-1606.8" font-family="Arial" font-size="9.00">Blue edge: outer/subpath input</text>
<text text-anchor="middle" x="199.01" y="-1596.8" font-family="Arial" font-size="9.00">Orange edge: inner input</text>
<text text-anchor="middle" x="199.01" y="-1586.8" font-family="Arial" font-size="9.00">Dashed cluster: relation/join group</text>
<text text-anchor="middle" x="199.01" y="-1576.8" font-family="Arial" font-size="9.00">Green node: selected plan</text>
<text text-anchor="middle" x="199.01" y="-1566.8" font-family="Arial" font-size="9.00">Black edge: relation path progression</text>
</g>
</g>
</svg>
