<?xml version="1.0" encoding="UTF-8" standalone="no"?>
<!DOCTYPE svg PUBLIC "-//W3C//DTD SVG 1.1//EN"
 "http://www.w3.org/Graphics/SVG/1.1/DTD/svg11.dtd">
<!-- Generated by graphviz version 2.43.0 (0)
 -->
<!-- Title: %3 Pages: 1 -->
<svg width="941pt" height="893pt"
 viewBox="0.00 0.00 941.30 893.00" xmlns="http://www.w3.org/2000/svg" xmlns:xlink="http://www.w3.org/1999/xlink">
<g id="graph0" class="graph" transform="scale(1 1) rotate(0) translate(4 889)">
<title>%3</title>
<polygon fill="white" stroke="transparent" points="-4,4 -4,-889 937.3,-889 937.3,4 -4,4"/>
<g id="clust1" class="cluster">
<title>cluster_left</title>
<polygon fill="none" stroke="black" points="58.3,-8 58.3,-718 331.3,-718 331.3,-8 58.3,-8"/>
</g>
<g id="clust2" class="cluster">
<title>cluster_relations</title>
<polygon fill="none" stroke="black" points="66.3,-16 66.3,-710 323.3,-710 323.3,-16 66.3,-16"/>
</g>
<g id="clust3" class="cluster">
<title>cluster_rel_0</title>
<path fill="none" stroke="#a6a6a6" stroke-width="1.2" stroke-dasharray="5,2" d="M86.3,-367C86.3,-367 303.3,-367 303.3,-367 309.3,-367 315.3,-373 315.3,-379 315.3,-379 315.3,-690 315.3,-690 315.3,-696 309.3,-702 303.3,-702 303.3,-702 86.3,-702 86.3,-702 80.3,-702 74.3,-696 74.3,-690 74.3,-690 74.3,-379 74.3,-379 74.3,-373 80.3,-367 86.3,-367"/>
<text text-anchor="middle" x="194.8" y="-690" font-family="Arial" font-size="10.00">PID 1723791 • Relation RTI 1 (public.test1 (26144))</text>
</g>
<g id="clust4" class="cluster">
<title>cluster_rel_1</title>
<path fill="none" stroke="#a6a6a6" stroke-width="1.2" stroke-dasharray="5,2" d="M86.3,-24C86.3,-24 303.3,-24 303.3,-24 309.3,-24 315.3,-30 315.3,-36 315.3,-36 315.3,-347 315.3,-347 315.3,-353 309.3,-359 303.3,-359 303.3,-359 86.3,-359 86.3,-359 80.3,-359 74.3,-353 74.3,-347 74.3,-347 74.3,-36 74.3,-36 74.3,-30 80.3,-24 86.3,-24"/>
<text text-anchor="middle" x="194.8" y="-347" font-family="Arial" font-size="10.00">PID 1723791 • Relation RTI 2 (public.test2 (26149))</text>
</g>
<g id="clust5" class="cluster">
<title>cluster_join_0</title>
<path fill="none" stroke="#6e7b8b" stroke-width="1.2" stroke-dasharray="5,2" d="M606.3,-473C606.3,-473 913.3,-473 913.3,-473 919.3,-473 925.3,-479 925.3,-485 925.3,-485 925.3,-584 925.3,-584 925.3,-590 919.3,-596 913.3,-596 913.3,-596 606.3,-596 606.3,-596 600.3,-596 594.3,-590 594.3,-584 594.3,-584 594.3,-485 594.3,-485 594.3,-479 600.3,-473 606.3,-473"/>
<text text-anchor="middle" x="759.8" y="-584" font-family="Arial" font-size="10.00">PID 1723791 • JOIN_LEFT (outer: RTI 1, inner: RTI 2)</text>
</g>
<!-- plan_1723791_0 -->
<g id="node1" class="node">
<title>plan_1723791_0</title>
<path fill="lightblue" stroke="black" d="M247.3,-675C247.3,-675 142.3,-675 142.3,-675 136.3,-675 130.3,-669 130.3,-663 130.3,-663 130.3,-619 130.3,-619 130.3,-613 136.3,-607 142.3,-607 142.3,-607 247.3,-607 247.3,-607 253.3,-607 259.3,-613 259.3,-619 259.3,-619 259.3,-663 259.3,-663 259.3,-669 253.3,-675 247.3,-675"/>
<text text-anchor="middle" x="194.8" y="-663.8" font-family="Arial" font-size="9.00">T_SeqScan</text>
<text text-anchor="middle" x="194.8" y="-653.8" font-family="Arial" font-size="9.00">Type: T_Path</text>
<text text-anchor="middle" x="194.8" y="-643.8" font-family="Arial" font-size="9.00">Startup: 0.000</text>
<text text-anchor="middle" x="194.8" y="-633.8" font-family="Arial" font-size="9.00">Total: 17.500</text>
<text text-anchor="middle" x="194.8" y="-623.8" font-family="Arial" font-size="9.00">Rows: 1</text>
<text text-anchor="middle" x="194.8" y="-613.8" font-family="Arial" font-size="9.00">Parent: public.test1 (26144)</text>
</g>
<!-- plan_1723791_1 -->
<g id="node2" class="node">
<title>plan_1723791_1</title>
<path fill="lightgreen" stroke="black" stroke-width="3" d="M247.3,-564C247.3,-564 142.3,-564 142.3,-564 136.3,-564 130.3,-558 130.3,-552 130.3,-552 130.3,-498 130.3,-498 130.3,-492 136.3,-486 142.3,-486 142.3,-486 247.3,-486 247.3,-486 253.3,-486 259.3,-492 259.3,-498 259.3,-498 259.3,-552 259.3,-552 259.3,-558 253.3,-564 247.3,-564"/>
<text text-anchor="middle" x="194.8" y="-552.8" font-family="Arial" font-size="9.00">T_IndexOnlyScan</text>
<text text-anchor="middle" x="194.8" y="-542.8" font-family="Arial" font-size="9.00">[CHOSEN]</text>
<text text-anchor="middle" x="194.8" y="-532.8" font-family="Arial" font-size="9.00">Type: T_IndexPath</text>
<text text-anchor="middle" x="194.8" y="-522.8" font-family="Arial" font-size="9.00">Startup: 0.275</text>
<text text-anchor="middle" x="194.8" y="-512.8" font-family="Arial" font-size="9.00">Total: 8.293</text>
<text text-anchor="middle" x="194.8" y="-502.8" font-family="Arial" font-size="9.00">Rows: 1</text>
<text text-anchor="middle" x="194.8" y="-492.8" font-family="Arial" font-size="9.00">Parent: public.test1 (26144)</text>
</g>
<!-- plan_1723791_0&#45;&gt;plan_1723791_1 -->
<g id="edge1" class="edge">
<title>plan_1723791_0&#45;&gt;plan_1723791_1</title>
<path fill="none" stroke="#7f7f7f" stroke-dasharray="5,2" d="M194.8,-606.9C194.8,-592.74 194.8,-578.58 194.8,-564.42"/>
<text text-anchor="middle" x="189.8" y="-578.46" font-family="Arial" font-size="9.00">alt</text>
</g>
<!-- plan_1723791_3 -->
<g id="node4" class="node">
<title>plan_1723791_3</title>
<path fill="lightblue" stroke="black" d="M247.3,-332C247.3,-332 142.3,-332 142.3,-332 136.3,-332 130.3,-326 130.3,-320 130.3,-320 130.3,-276 130.3,-276 130.3,-270 136.3,-264 142.3,-264 142.3,-264 247.3,-264 247.3,-264 253.3,-264 259.3,-270 259.3,-276 259.3,-276 259.3,-320 259.3,-320 259.3,-326 253.3,-332 247.3,-332"/>
<text text-anchor="middle" x="194.8" y="-320.8" font-family="Arial" font-size="9.00">T_SeqScan</text>
<text text-anchor="middle" x="194.8" y="-310.8" font-family="Arial" font-size="9.00">Type: T_Path</text>
<text text-anchor="middle" x="194.8" y="-300.8" font-family="Arial" font-size="9.00">Startup: 0.000</text>
<text text-anchor="middle" x="194.8" y="-290.8" font-family="Arial" font-size="9.00">Total: 17.500</text>
<text text-anchor="middle" x="194.8" y="-280.8" font-family="Arial" font-size="9.00">Rows: 1</text>
<text text-anchor="middle" x="194.8" y="-270.8" font-family="Arial" font-size="9.00">Parent: public.test2 (26149)</text>
</g>
<!-- plan_1723791_0&#45;&gt;plan_1723791_3 -->
<!-- plan_1723791_2 -->
<g id="node3" class="node">
<title>plan_1723791_2</title>
<path fill="lightblue" stroke="black" d="M247.3,-443C247.3,-443 142.3,-443 142.3,-443 136.3,-443 130.3,-437 130.3,-431 130.3,-431 130.3,-387 130.3,-387 130.3,-381 136.3,-375 142.3,-375 142.3,-375 247.3,-375 247.3,-375 253.3,-375 259.3,-381 259.3,-387 259.3,-387 259.3,-431 259.3,-431 259.3,-437 253.3,-443 247.3,-443"/>
<text text-anchor="middle" x="194.8" y="-431.8" font-family="Arial" font-size="9.00">T_BitmapHeapScan</text>
<text text-anchor="middle" x="194.8" y="-421.8" font-family="Arial" font-size="9.00">Type: T_BitmapHeapPath</text>
<text text-anchor="middle" x="194.8" y="-411.8" font-family="Arial" font-size="9.00">Startup: 4.283</text>
<text text-anchor="middle" x="194.8" y="-401.8" font-family="Arial" font-size="9.00">Total: 8.295</text>
<text text-anchor="middle" x="194.8" y="-391.8" font-family="Arial" font-size="9.00">Rows: 1</text>
<text text-anchor="middle" x="194.8" y="-381.8" font-family="Arial" font-size="9.00">Parent: public.test1 (26144)</text>
</g>
<!-- plan_1723791_1&#45;&gt;plan_1723791_2 -->
<g id="edge2" class="edge">
<title>plan_1723791_1&#45;&gt;plan_1723791_2</title>
<path fill="none" stroke="#7f7f7f" stroke-dasharray="5,2" d="M194.8,-485.81C194.8,-471.69 194.8,-457.56 194.8,-443.44"/>
<text text-anchor="middle" x="189.8" y="-457.42" font-family="Arial" font-size="9.00">alt</text>
</g>
<!-- plan_1723791_4 -->
<g id="node5" class="node">
<title>plan_1723791_4</title>
<path fill="lightgreen" stroke="black" stroke-width="3" d="M247.3,-221C247.3,-221 142.3,-221 142.3,-221 136.3,-221 130.3,-215 130.3,-209 130.3,-209 130.3,-155 130.3,-155 130.3,-149 136.3,-143 142.3,-143 142.3,-143 247.3,-143 247.3,-143 253.3,-143 259.3,-149 259.3,-155 259.3,-155 259.3,-209 259.3,-209 259.3,-215 253.3,-221 247.3,-221"/>
<text text-anchor="middle" x="194.8" y="-209.8" font-family="Arial" font-size="9.00">T_IndexOnlyScan</text>
<text text-anchor="middle" x="194.8" y="-199.8" font-family="Arial" font-size="9.00">[CHOSEN]</text>
<text text-anchor="middle" x="194.8" y="-189.8" font-family="Arial" font-size="9.00">Type: T_IndexPath</text>
<text text-anchor="middle" x="194.8" y="-179.8" font-family="Arial" font-size="9.00">Startup: 0.275</text>
<text text-anchor="middle" x="194.8" y="-169.8" font-family="Arial" font-size="9.00">Total: 8.293</text>
<text text-anchor="middle" x="194.8" y="-159.8" font-family="Arial" font-size="9.00">Rows: 1</text>
<text text-anchor="middle" x="194.8" y="-149.8" font-family="Arial" font-size="9.00">Parent: public.test2 (26149)</text>
</g>
<!-- plan_1723791_1&#45;&gt;plan_1723791_4 -->
<!-- plan_1723791_6 -->
<g id="node7" class="node">
<title>plan_1723791_6</title>
<path fill="lightgreen" stroke="black" stroke-width="3" d="M715.3,-569C715.3,-569 614.3,-569 614.3,-569 608.3,-569 602.3,-563 602.3,-557 602.3,-557 602.3,-493 602.3,-493 602.3,-487 608.3,-481 614.3,-481 614.3,-481 715.3,-481 715.3,-481 721.3,-481 727.3,-487 727.3,-493 727.3,-493 727.3,-557 727.3,-557 727.3,-563 721.3,-569 715.3,-569"/>
<text text-anchor="middle" x="664.8" y="-557.8" font-family="Arial" font-size="9.00">T_NestLoop</text>
<text text-anchor="middle" x="664.8" y="-547.8" font-family="Arial" font-size="9.00">[CHOSEN]</text>
<text text-anchor="middle" x="664.8" y="-537.8" font-family="Arial" font-size="9.00">Type: T_NestPath</text>
<text text-anchor="middle" x="664.8" y="-527.8" font-family="Arial" font-size="9.00">Startup: 0.550</text>
<text text-anchor="middle" x="664.8" y="-517.8" font-family="Arial" font-size="9.00">Total: 16.595</text>
<text text-anchor="middle" x="664.8" y="-507.8" font-family="Arial" font-size="9.00">Rows: 1</text>
<text text-anchor="middle" x="664.8" y="-497.8" font-family="Arial" font-size="9.00">Outer: public.test1 (26144)</text>
<text text-anchor="middle" x="664.8" y="-487.8" font-family="Arial" font-size="9.00">Inner: public.test2 (26149)</text>
</g>
<!-- plan_1723791_1&#45;&gt;plan_1723791_6 -->
<g id="edge6" class="edge">
<title>plan_1723791_1&#45;&gt;plan_1723791_6</title>
<path fill="none" stroke="#4f94cd" d="M259.4,-525C347.12,-525 504.62,-525 595,-525"/>
<polygon fill="#4f94cd" stroke="#4f94cd" points="595.2,-527.45 602.2,-525 595.2,-522.55 595.2,-527.45"/>
<text text-anchor="middle" x="419.9" y="-517.8" font-family="Arial" font-size="9.00">outer</text>
</g>
<!-- plan_1723791_7 -->
<g id="node8" class="node">
<title>plan_1723791_7</title>
<path fill="lightblue" stroke="black" d="M905.3,-559C905.3,-559 804.3,-559 804.3,-559 798.3,-559 792.3,-553 792.3,-547 792.3,-547 792.3,-493 792.3,-493 792.3,-487 798.3,-481 804.3,-481 804.3,-481 905.3,-481 905.3,-481 911.3,-481 917.3,-487 917.3,-493 917.3,-493 917.3,-547 917.3,-547 917.3,-553 911.3,-559 905.3,-559"/>
<text text-anchor="middle" x="854.8" y="-547.8" font-family="Arial" font-size="9.00">T_NestLoop</text>
<text text-anchor="middle" x="854.8" y="-537.8" font-family="Arial" font-size="9.00">Type: T_NestPath</text>
<text text-anchor="middle" x="854.8" y="-527.8" font-family="Arial" font-size="9.00">Startup: 0.550</text>
<text text-anchor="middle" x="854.8" y="-517.8" font-family="Arial" font-size="9.00">Total: 16.600</text>
<text text-anchor="middle" x="854.8" y="-507.8" font-family="Arial" font-size="9.00">Rows: 1</text>
<text text-anchor="middle" x="854.8" y="-497.8" font-family="Arial" font-size="9.00">Outer: public.test1 (26144)</text>
<text text-anchor="middle" x="854.8" y="-487.8" font-family="Arial" font-size="9.00">Inner: public.test2 (26149)</text>
</g>
<!-- plan_1723791_1&#45;&gt;plan_1723791_7 -->
<g id="edge8" class="edge">
<title>plan_1723791_1&#45;&gt;plan_1723791_7</title>
<path fill="none" stroke="#4f94cd" d="M259.5,-503.3C359.95,-472.18 560.88,-422.53 727.3,-460 746.94,-464.42 767.11,-472.26 785.42,-480.85"/>
<polygon fill="#4f94cd" stroke="#4f94cd" points="784.7,-483.22 792.08,-484.04 786.82,-478.8 784.7,-483.22"/>
<text text-anchor="middle" x="511" y="-442.69" font-family="Arial" font-size="9.00">outer</text>
</g>
<!-- plan_1723791_5 -->
<g id="node6" class="node">
<title>plan_1723791_5</title>
<path fill="lightblue" stroke="black" d="M247.3,-100C247.3,-100 142.3,-100 142.3,-100 136.3,-100 130.3,-94 130.3,-88 130.3,-88 130.3,-44 130.3,-44 130.3,-38 136.3,-32 142.3,-32 142.3,-32 247.3,-32 247.3,-32 253.3,-32 259.3,-38 259.3,-44 259.3,-44 259.3,-88 259.3,-88 259.3,-94 253.3,-100 247.3,-100"/>
<text text-anchor="middle" x="194.8" y="-88.8" font-family="Arial" font-size="9.00">T_BitmapHeapScan</text>
<text text-anchor="middle" x="194.8" y="-78.8" font-family="Arial" font-size="9.00">Type: T_BitmapHeapPath</text>
<text text-anchor="middle" x="194.8" y="-68.8" font-family="Arial" font-size="9.00">Startup: 4.283</text>
<text text-anchor="middle" x="194.8" y="-58.8" font-family="Arial" font-size="9.00">Total: 8.295</text>
<text text-anchor="middle" x="194.8" y="-48.8" font-family="Arial" font-size="9.00">Rows: 1</text>
<text text-anchor="middle" x="194.8" y="-38.8" font-family="Arial" font-size="9.00">Parent: public.test2 (26149)</text>
</g>
<!-- plan_1723791_2&#45;&gt;plan_1723791_5 -->
<!-- plan_1723791_3&#45;&gt;plan_1723791_4 -->
<g id="edge3" class="edge">
<title>plan_1723791_3&#45;&gt;plan_1723791_4</title>
<path fill="none" stroke="#7f7f7f" stroke-dasharray="5,2" d="M194.8,-263.9C194.8,-249.74 194.8,-235.58 194.8,-221.42"/>
<text text-anchor="middle" x="189.8" y="-235.46" font-family="Arial" font-size="9.00">alt</text>
</g>
<!-- plan_1723791_4&#45;&gt;plan_1723791_5 -->
<g id="edge4" class="edge">
<title>plan_1723791_4&#45;&gt;plan_1723791_5</title>
<path fill="none" stroke="#7f7f7f" stroke-dasharray="5,2" d="M194.8,-142.81C194.8,-128.69 194.8,-114.56 194.8,-100.44"/>
<text text-anchor="middle" x="189.8" y="-114.42" font-family="Arial" font-size="9.00">alt</text>
</g>
<!-- plan_1723791_4&#45;&gt;plan_1723791_6 -->
<g id="edge7" class="edge">
<title>plan_1723791_4&#45;&gt;plan_1723791_6</title>
<path fill="none" stroke="#cd6600" d="M259.41,-206.27C282.76,-216.29 308.94,-228.88 331.3,-243 441.17,-312.38 553.21,-415.52 615.1,-475.95"/>
<polygon fill="#cd6600" stroke="#cd6600" points="613.48,-477.79 620.2,-480.94 616.91,-474.29 613.48,-477.79"/>
<text text-anchor="middle" x="440.23" y="-322.59" font-family="Arial" font-size="9.00">inner</text>
</g>
<!-- plan_1723791_8 -->
<g id="node9" class="node">
<title>plan_1723791_8</title>
<path fill="lightblue" stroke="black" d="M525.3,-264C525.3,-264 420.3,-264 420.3,-264 414.3,-264 408.3,-258 408.3,-252 408.3,-252 408.3,-208 408.3,-208 408.3,-202 414.3,-196 420.3,-196 420.3,-196 525.3,-196 525.3,-196 531.3,-196 537.3,-202 537.3,-208 537.3,-208 537.3,-252 537.3,-252 537.3,-258 531.3,-264 525.3,-264"/>
<text text-anchor="middle" x="472.8" y="-252.8" font-family="Arial" font-size="9.00">T_Material</text>
<text text-anchor="middle" x="472.8" y="-242.8" font-family="Arial" font-size="9.00">Type: T_MaterialPath</text>
<text text-anchor="middle" x="472.8" y="-232.8" font-family="Arial" font-size="9.00">Startup: 0.275</text>
<text text-anchor="middle" x="472.8" y="-222.8" font-family="Arial" font-size="9.00">Total: 8.298</text>
<text text-anchor="middle" x="472.8" y="-212.8" font-family="Arial" font-size="9.00">Rows: 1</text>
<text text-anchor="middle" x="472.8" y="-202.8" font-family="Arial" font-size="9.00">Parent: public.test2 (26149)</text>
</g>
<!-- plan_1723791_5&#45;&gt;plan_1723791_8 -->
<g id="edge5" class="edge">
<title>plan_1723791_5&#45;&gt;plan_1723791_8</title>
<path fill="none" stroke="black" d="M259.5,-88.32C282.74,-97.49 308.81,-109.02 331.3,-122 365.63,-141.82 400.99,-169.04 427.65,-191.2"/>
<polygon fill="black" stroke="black" points="426.26,-193.23 433.2,-195.85 429.4,-189.48 426.26,-193.23"/>
</g>
<!-- plan_1723791_6&#45;&gt;plan_1723791_7 -->
<!-- plan_1723791_8&#45;&gt;plan_1723791_7 -->
<g id="edge9" class="edge">
<title>plan_1723791_8&#45;&gt;plan_1723791_7</title>
<path fill="none" stroke="#cd6600" d="M537.39,-262.25C590.68,-290.72 667.42,-335.21 727.3,-384 760.81,-411.31 793.92,-447.31 817.85,-475.41"/>
<polygon fill="#cd6600" stroke="#cd6600" points="816.12,-477.16 822.51,-480.92 819.86,-474 816.12,-477.16"/>
<text text-anchor="middle" x="679.96" y="-349.06" font-family="Arial" font-size="9.00">inner</text>
</g>
<!-- stats -->
<g id="node10" class="node">
<title>stats</title>
<polygon fill="lightyellow" stroke="black" points="270.8,-774 112.8,-774 112.8,-726 276.8,-726 276.8,-768 270.8,-774"/>
<polyline fill="none" stroke="black" points="270.8,-774 270.8,-768 "/>
<polyline fill="none" stroke="black" points="276.8,-768 270.8,-768 "/>
<text text-anchor="middle" x="194.8" y="-762.8" font-family="Arial" font-size="9.00">Statistics</text>
<text text-anchor="middle" x="194.8" y="-752.8" font-family="Arial" font-size="9.00">Total paths considered: 9</text>
<text text-anchor="middle" x="194.8" y="-742.8" font-family="Arial" font-size="9.00">Cheapest: T_IndexOnlyScan (8.29)</text>
<text text-anchor="middle" x="194.8" y="-732.8" font-family="Arial" font-size="9.00">Most expensive: T_SeqScan (17.50)</text>
</g>
<!-- legend -->
<g id="node11" class="node">
<title>legend</title>
<polygon fill="white" stroke="black" points="273.3,-885 110.3,-885 110.3,-817 279.3,-817 279.3,-879 273.3,-885"/>
<polyline fill="none" stroke="black" points="273.3,-885 273.3,-879 "/>
<polyline fill="none" stroke="black" points="279.3,-879 273.3,-879 "/>
<text text-anchor="middle" x="194.8" y="-873.8" font-family="Arial" font-size="9.00">Legend</text>
<text text-anchor="middle" x="194.8" y="-863.8" font-family="Arial" font-size="9.00">Blue edge: outer/subpath input</text>
<text text-anchor="middle" x="194.8" y="-853.8" font-family="Arial" font-size="9.00">Orange edge: inner input</text>
<text text-anchor="middle" x="194.8" y="-843.8" font-family="Arial" font-size="9.00">Dashed cluster: relation/join group</text>
<text text-anchor="middle" x="194.8" y="-833.8" font-family="Arial" font-size="9.00">Green node: selected plan</text>
<text text-anchor="middle" x="194.8" y="-823.8" font-family="Arial" font-size="9.00">Black edge: relation path progression</text>
</g>
</g>
</svg>
