<?xml version="1.0" encoding="UTF-8" standalone="no"?>
<!DOCTYPE svg PUBLIC "-//W3C//DTD SVG 1.1//EN"
 "http://www.w3.org/Graphics/SVG/1.1/DTD/svg11.dtd">
<!-- Generated by graphviz version 2.43.0 (0)
 -->
<!-- Title: %3 Pages: 1 -->
<svg width="792pt" height="439pt"
 viewBox="0.00 0.00 792.00 439.00" xmlns="http://www.w3.org/2000/svg" xmlns:xlink="http://www.w3.org/1999/xlink">
<g id="graph0" class="graph" transform="scale(1 1) rotate(0) translate(4 435)">
<title>%3</title>
<polygon fill="white" stroke="transparent" points="-4,4 -4,-435 788,-435 788,4 -4,4"/>
<g id="clust1" class="cluster">
<title>cluster_left</title>
<polygon fill="none" stroke="black" points="0,-8 0,-264 273,-264 273,-8 0,-8"/>
</g>
<g id="clust2" class="cluster">
<title>cluster_relations</title>
<polygon fill="none" stroke="black" points="8,-16 8,-256 265,-256 265,-16 8,-16"/>
</g>
<g id="clust3" class="cluster">
<title>cluster_rel_0</title>
<path fill="none" stroke="#a6a6a6" stroke-width="1.2" stroke-dasharray="5,2" d="M28,-24C28,-24 245,-24 245,-24 251,-24 257,-30 257,-36 257,-36 257,-236 257,-236 257,-242 251,-248 245,-248 245,-248 28,-248 28,-248 22,-248 16,-242 16,-236 16,-236 16,-36 16,-36 16,-30 22,-24 28,-24"/>
<text text-anchor="middle" x="136.5" y="-236" font-family="Arial" font-size="10.00">PID 1723791 • Relation RTI 1 (public.test1 (26144))</text>
</g>
<g id="clust4" class="cluster">
<title>cluster_parent_rel_0</title>
<path fill="none" stroke="#8c8c8c" stroke-width="1.2" stroke-dasharray="5,2" d="M404,-145C404,-145 764,-145 764,-145 770,-145 776,-151 776,-157 776,-157 776,-236 776,-236 776,-242 770,-248 764,-248 764,-248 404,-248 404,-248 398,-248 392,-242 392,-236 392,-236 392,-157 392,-157 392,-151 398,-145 404,-145"/>
<text text-anchor="middle" x="584" y="-236" font-family="Arial" font-size="10.00">PID 1723791 • Derived relation 187651256159688</text>
</g>
<!-- plan_1723791_0 -->
<g id="node1" class="node">
<title>plan_1723791_0</title>
<path fill="lightblue" stroke="black" d="M189,-221C189,-221 84,-221 84,-221 78,-221 72,-215 72,-209 72,-209 72,-165 72,-165 72,-159 78,-153 84,-153 84,-153 189,-153 189,-153 195,-153 201,-159 201,-165 201,-165 201,-209 201,-209 201,-215 195,-221 189,-221"/>
<text text-anchor="middle" x="136.5" y="-209.8" font-family="Arial" font-size="9.00">T_SeqScan</text>
<text text-anchor="middle" x="136.5" y="-199.8" font-family="Arial" font-size="9.00">Type: T_Path</text>
<text text-anchor="middle" x="136.5" y="-189.8" font-family="Arial" font-size="9.00">Startup: 0.000</text>
<text text-anchor="middle" x="136.5" y="-179.8" font-family="Arial" font-size="9.00">Total: 15.000</text>
<text text-anchor="middle" x="136.5" y="-169.8" font-family="Arial" font-size="9.00">Rows: 1000</text>
<text text-anchor="middle" x="136.5" y="-159.8" font-family="Arial" font-size="9.00">Parent: public.test1 (26144)</text>
</g>
<!-- plan_1723791_1 -->
<g id="node2" class="node">
<title>plan_1723791_1</title>
<path fill="lightgreen" stroke="black" stroke-width="3" d="M189,-110C189,-110 84,-110 84,-110 78,-110 72,-104 72,-98 72,-98 72,-44 72,-44 72,-38 78,-32 84,-32 84,-32 189,-32 189,-32 195,-32 201,-38 201,-44 201,-44 201,-98 201,-98 201,-104 195,-110 189,-110"/>
<text text-anchor="middle" x="136.5" y="-98.8" font-family="Arial" font-size="9.00">T_IndexOnlyScan</text>
<text text-anchor="middle" x="136.5" y="-88.8" font-family="Arial" font-size="9.00">[CHOSEN]</text>
<text text-anchor="middle" x="136.5" y="-78.8" font-family="Arial" font-size="9.00">Type: T_IndexPath</text>
<text text-anchor="middle" x="136.5" y="-68.8" font-family="Arial" font-size="9.00">Startup: 0.275</text>
<text text-anchor="middle" x="136.5" y="-58.8" font-family="Arial" font-size="9.00">Total: 43.275</text>
<text text-anchor="middle" x="136.5" y="-48.8" font-family="Arial" font-size="9.00">Rows: 1000</text>
<text text-anchor="middle" x="136.5" y="-38.8" font-family="Arial" font-size="9.00">Parent: public.test1 (26144)</text>
</g>
<!-- plan_1723791_0&#45;&gt;plan_1723791_1 -->
<g id="edge1" class="edge">
<title>plan_1723791_0&#45;&gt;plan_1723791_1</title>
<path fill="none" stroke="#7f7f7f" stroke-dasharray="5,2" d="M136.5,-152.9C136.5,-138.74 136.5,-124.58 136.5,-110.42"/>
<text text-anchor="middle" x="131.5" y="-124.46" font-family="Arial" font-size="9.00">alt</text>
</g>
<!-- plan_1723791_3 -->
<g id="node4" class="node">
<title>plan_1723791_3</title>
<path fill="lightblue" stroke="black" d="M513,-221C513,-221 412,-221 412,-221 406,-221 400,-215 400,-209 400,-209 400,-165 400,-165 400,-159 406,-153 412,-153 412,-153 513,-153 513,-153 519,-153 525,-159 525,-165 525,-165 525,-209 525,-209 525,-215 519,-221 513,-221"/>
<text text-anchor="middle" x="462.5" y="-209.8" font-family="Arial" font-size="9.00">T_Sort</text>
<text text-anchor="middle" x="462.5" y="-199.8" font-family="Arial" font-size="9.00">Type: T_SortPath</text>
<text text-anchor="middle" x="462.5" y="-189.8" font-family="Arial" font-size="9.00">Startup: 64.829</text>
<text text-anchor="middle" x="462.5" y="-179.8" font-family="Arial" font-size="9.00">Total: 67.329</text>
<text text-anchor="middle" x="462.5" y="-169.8" font-family="Arial" font-size="9.00">Rows: 1000</text>
<text text-anchor="middle" x="462.5" y="-159.8" font-family="Arial" font-size="9.00">Outer: public.test1 (26144)</text>
</g>
<!-- plan_1723791_0&#45;&gt;plan_1723791_3 -->
<g id="edge3" class="edge">
<title>plan_1723791_0&#45;&gt;plan_1723791_3</title>
<path fill="none" stroke="#4f94cd" d="M201.13,-187C256.35,-187 336.13,-187 392.8,-187"/>
<polygon fill="#4f94cd" stroke="#4f94cd" points="392.94,-189.45 399.94,-187 392.94,-184.55 392.94,-189.45"/>
<text text-anchor="middle" x="283.4" y="-179.8" font-family="Arial" font-size="9.00">subpath</text>
</g>
<!-- plan_1723791_2 -->
<g id="node3" class="node">
<title>plan_1723791_2</title>
<path fill="lightblue" stroke="black" d="M756,-216C756,-216 668,-216 668,-216 662,-216 656,-210 656,-204 656,-204 656,-170 656,-170 656,-164 662,-158 668,-158 668,-158 756,-158 756,-158 762,-158 768,-164 768,-170 768,-170 768,-204 768,-204 768,-210 762,-216 756,-216"/>
<text text-anchor="middle" x="712" y="-204.8" font-family="Arial" font-size="9.00">T_Result</text>
<text text-anchor="middle" x="712" y="-194.8" font-family="Arial" font-size="9.00">Type: T_ProjectionPath</text>
<text text-anchor="middle" x="712" y="-184.8" font-family="Arial" font-size="9.00">Startup: 64.829</text>
<text text-anchor="middle" x="712" y="-174.8" font-family="Arial" font-size="9.00">Total: 67.329</text>
<text text-anchor="middle" x="712" y="-164.8" font-family="Arial" font-size="9.00">Rows: 1000</text>
</g>
<!-- plan_1723791_3&#45;&gt;plan_1723791_2 -->
<g id="edge2" class="edge">
<title>plan_1723791_3&#45;&gt;plan_1723791_2</title>
<path fill="none" stroke="#4f94cd" d="M525.32,-187C562.9,-187 610.75,-187 648.47,-187"/>
<polygon fill="#4f94cd" stroke="#4f94cd" points="648.87,-189.45 655.87,-187 648.87,-184.55 648.87,-189.45"/>
<text text-anchor="middle" x="573.35" y="-179.8" font-family="Arial" font-size="9.00">subpath</text>
</g>
<!-- stats -->
<g id="node5" class="node">
<title>stats</title>
<polygon fill="lightyellow" stroke="black" points="207,-320 60,-320 60,-272 213,-272 213,-314 207,-320"/>
<polyline fill="none" stroke="black" points="207,-320 207,-314 "/>
<polyline fill="none" stroke="black" points="213,-314 207,-314 "/>
<text text-anchor="middle" x="136.5" y="-308.8" font-family="Arial" font-size="9.00">Statistics</text>
<text text-anchor="middle" x="136.5" y="-298.8" font-family="Arial" font-size="9.00">Total paths considered: 4</text>
<text text-anchor="middle" x="136.5" y="-288.8" font-family="Arial" font-size="9.00">Cheapest: T_SeqScan (15.00)</text>
<text text-anchor="middle" x="136.5" y="-278.8" font-family="Arial" font-size="9.00">Most expensive: T_Result (67.33)</text>
</g>
<!-- legend -->
<g id="node6" class="node">
<title>legend</title>
<polygon fill="white" stroke="black" points="215,-431 52,-431 52,-363 221,-363 221,-425 215,-431"/>
<polyline fill="none" stroke="black" points="215,-431 215,-425 "/>
<polyline fill="none" stroke="black" points="221,-425 215,-425 "/>
<text text-anchor="middle" x="136.5" y="-419.8" font-family="Arial" font-size="9.00">Legend</text>
<text text-anchor="middle" x="136.5" y="-409.8" font-family="Arial" font-size="9.00">Blue edge: outer/subpath input</text>
<text text-anchor="middle" x="136.5" y="-399.8" font-family="Arial" font-size="9.00">Orange edge: inner input</text>
<text text-anchor="middle" x="136.5" y="-389.8" font-family="Arial" font-size="9.00">Dashed cluster: relation/join group</text>
<text text-anchor="middle" x="136.5" y="-379.8" font-family="Arial" font-size="9.00">Green node: selected plan</text>
<text text-anchor="middle" x="136.5" y="-369.8" font-family="Arial" font-size="9.00">Black edge: relation path progression</text>
</g>
</g>
</svg>
