<?xml version="1.0" encoding="UTF-8" standalone="no"?>
<!DOCTYPE svg PUBLIC "-//W3C//DTD SVG 1.1//EN"
 "http://www.w3.org/Graphics/SVG/1.1/DTD/svg11.dtd">
<!-- Generated by graphviz version 2.43.0 (0)
 -->
<!-- Title: %3 Pages: 1 -->
<svg width="281pt" height="550pt"
 viewBox="0.00 0.00 281.00 550.00" xmlns="http://www.w3.org/2000/svg" xmlns:xlink="http://www.w3.org/1999/xlink">
<g id="graph0" class="graph" transform="scale(1 1) rotate(0) translate(4 546)">
<title>%3</title>
<polygon fill="white" stroke="transparent" points="-4,4 -4,-546 277,-546 277,4 -4,4"/>
<g id="clust1" class="cluster">
<title>cluster_left</title>
<polygon fill="none" stroke="black" points="0,-8 0,-375 273,-375 273,-8 0,-8"/>
</g>
<g id="clust2" class="cluster">
<title>cluster_relations</title>
<polygon fill="none" stroke="black" points="8,-16 8,-367 265,-367 265,-16 8,-16"/>
</g>
<g id="clust3" class="cluster">
<title>cluster_rel_0</title>
<path fill="none" stroke="#a6a6a6" stroke-width="1.2" stroke-dasharray="5,2" d="M28,-24C28,-24 245,-24 245,-24 251,-24 257,-30 257,-36 257,-36 257,-347 257,-347 257,-353 251,-359 245,-359 245,-359 28,-359 28,-359 22,-359 16,-353 16,-347 16,-347 16,-36 16,-36 16,-30 22,-24 28,-24"/>
<text text-anchor="middle" x="136.5" y="-347" font-family="Arial" font-size="10.00">PID 1723791 • Relation RTI 1 (public.test1 (26144))</text>
</g>
<!-- plan_1723791_0 -->
<g id="node1" class="node">
<title>plan_1723791_0</title>
<path fill="lightblue" stroke="black" d="M189,-332C189,-332 84,-332 84,-332 78,-332 72,-326 72,-320 72,-320 72,-276 72,-276 72,-270 78,-264 84,-264 84,-264 189,-264 189,-264 195,-264 201,-270 201,-276 201,-276 201,-320 201,-320 201,-326 195,-332 189,-332"/>
<text text-anchor="middle" x="136.5" y="-320.8" font-family="Arial" font-size="9.00">T_SeqScan</text>
<text text-anchor="middle" x="136.5" y="-310.8" font-family="Arial" font-size="9.00">Type: T_Path</text>
<text text-anchor="middle" x="136.5" y="-300.8" font-family="Arial" font-size="9.00">Startup: 0.000</text>
<text text-anchor="middle" x="136.5" y="-290.8" font-family="Arial" font-size="9.00">Total: 17.500</text>
<text text-anchor="middle" x="136.5" y="-280.8" font-family="Arial" font-size="9.00">Rows: 1</text>
<text text-anchor="middle" x="136.5" y="-270.8" font-family="Arial" font-size="9.00">Parent: public.test1 (26144)</text>
</g>
<!-- plan_1723791_1 -->
<g id="node2" class="node">
<title>plan_1723791_1</title>
<path fill="lightgreen" stroke="black" stroke-width="3" d="M189,-221C189,-221 84,-221 84,-221 78,-221 72,-215 72,-209 72,-209 72,-155 72,-155 72,-149 78,-143 84,-143 84,-143 189,-143 189,-143 195,-143 201,-149 201,-155 201,-155 201,-209 201,-209 201,-215 195,-221 189,-221"/>
<text text-anchor="middle" x="136.5" y="-209.8" font-family="Arial" font-size="9.00">T_IndexOnlyScan</text>
<text text-anchor="middle" x="136.5" y="-199.8" font-family="Arial" font-size="9.00">[CHOSEN]</text>
<text text-anchor="middle" x="136.5" y="-189.8" font-family="Arial" font-size="9.00">Type: T_IndexPath</text>
<text text-anchor="middle" x="136.5" y="-179.8" font-family="Arial" font-size="9.00">Startup: 0.275</text>
<text text-anchor="middle" x="136.5" y="-169.8" font-family="Arial" font-size="9.00">Total: 8.293</text>
<text text-anchor="middle" x="136.5" y="-159.8" font-family="Arial" font-size="9.00">Rows: 1</text>
<text text-anchor="middle" x="136.5" y="-149.8" font-family="Arial" font-size="9.00">Parent: public.test1 (26144)</text>
</g>
<!-- plan_1723791_0&#45;&gt;plan_1723791_1 -->
<g id="edge1" class="edge">
<title>plan_1723791_0&#45;&gt;plan_1723791_1</title>
<path fill="none" stroke="#7f7f7f" stroke-dasharray="5,2" d="M136.5,-263.9C136.5,-249.74 136.5,-235.58 136.5,-221.42"/>
<text text-anchor="middle" x="131.5" y="-235.46" font-family="Arial" font-size="9.00">alt</text>
</g>
<!-- plan_1723791_2 -->
<g id="node3" class="node">
<title>plan_1723791_2</title>
<path fill="lightblue" stroke="black" d="M189,-100C189,-100 84,-100 84,-100 78,-100 72,-94 72,-88 72,-88 72,-44 72,-44 72,-38 78,-32 84,-32 84,-32 189,-32 189,-32 195,-32 201,-38 201,-44 201,-44 201,-88 201,-88 201,-94 195,-100 189,-100"/>
<text text-anchor="middle" x="136.5" y="-88.8" font-family="Arial" font-size="9.00">T_BitmapHeapScan</text>
<text text-anchor="middle" x="136.5" y="-78.8" font-family="Arial" font-size="9.00">Type: T_BitmapHeapPath</text>
<text text-anchor="middle" x="136.5" y="-68.8" font-family="Arial" font-size="9.00">Startup: 4.283</text>
<text text-anchor="middle" x="136.5" y="-58.8" font-family="Arial" font-size="9.00">Total: 8.295</text>
<text text-anchor="middle" x="136.5" y="-48.8" font-family="Arial" font-size="9.00">Rows: 1</text>
<text text-anchor="middle" x="136.5" y="-38.8" font-family="Arial" font-size="9.00">Parent: public.test1 (26144)</text>
</g>
<!-- plan_1723791_1&#45;&gt;plan_1723791_2 -->
<g id="edge2" class="edge">
<title>plan_1723791_1&#45;&gt;plan_1723791_2</title>
<path fill="none" stroke="#7f7f7f" stroke-dasharray="5,2" d="M136.5,-142.81C136.5,-128.69 136.5,-114.56 136.5,-100.44"/>
<text text-anchor="middle" x="131.5" y="-114.42" font-family="Arial" font-size="9.00">alt</text>
</g>
<!-- stats -->
<g id="node4" class="node">
<title>stats</title>
<polygon fill="lightyellow" stroke="black" points="212.5,-431 54.5,-431 54.5,-383 218.5,-383 218.5,-425 212.5,-431"/>
<polyline fill="none" stroke="black" points="212.5,-431 212.5,-425 "/>
<polyline fill="none" stroke="black" points="218.5,-425 212.5,-425 "/>
<text text-anchor="middle" x="136.5" y="-419.8" font-family="Arial" font-size="9.00">Statistics</text>
<text text-anchor="middle" x="136.5" y="-409.8" font-family="Arial" font-size="9.00">Total paths considered: 3</text>
<text text-anchor="middle" x="136.5" y="-399.8" font-family="Arial" font-size="9.00">Cheapest: T_IndexOnlyScan (8.29)</text>
<text text-anchor="middle" x="136.5" y="-389.8" font-family="Arial" font-size="9.00">Most expensive: T_SeqScan (17.50)</text>
</g>
<!-- legend -->
<g id="node5" class="node">
<title>legend</title>
<polygon fill="white" stroke="black" points="215,-542 52,-542 52,-474 221,-474 221,-536 215,-542"/>
<polyline fill="none" stroke="black" points="215,-542 215,-536 "/>
<polyline fill="none" stroke="black" points="221,-536 215,-536 "/>
<text text-anchor="middle" x="136.5" y="-530.8" font-family="Arial" font-size="9.00">Legend</text>
<text text-anchor="middle" x="136.5" y="-520.8" font-family="Arial" font-size="9.00">Blue edge: outer/subpath input</text>
<text text-anchor="middle" x="136.5" y="-510.8" font-family="Arial" font-size="9.00">Orange edge: inner input</text>
<text text-anchor="middle" x="136.5" y="-500.8" font-family="Arial" font-size="9.00">Dashed cluster: relation/join group</text>
<text text-anchor="middle" x="136.5" y="-490.8" font-family="Arial" font-size="9.00">Green node: selected plan</text>
<text text-anchor="middle" x="136.5" y="-480.8" font-family="Arial" font-size="9.00">Black edge: relation path progression</text>
</g>
</g>
</svg>
